<svg width="1226" height="378" xmlns="http://www.w3.org/2000/svg" version="1.1"><image href="map (1).jpeg" x="0" y="0" width="1226" height="378" /><rect x="140" y="190" width="60" height="40" fill="none" stroke="blue" stroke-width="2" id="room-3417" class="room" /><text x="145" y="205" fill="blue" font_size="12">3417</text><rect x="210" y="190" width="60" height="40" fill="none" stroke="blue" stroke-width="2" id="room-3416" class="room" /><text x="215" y="205" fill="blue" font_size="12">3416</text><rect x="280" y="190" width="60" height="40" fill="none" stroke="blue" stroke-width="2" id="room-3415" class="room" /><text x="285" y="205" fill="blue" font_size="12">3415</text><rect x="350" y="190" width="60" height="40" fill="none" stroke="blue" stroke-width="2" id="room-3414" class="room" /><text x="355" y="205" fill="blue" font_size="12">3414</text><rect x="420" y="190" width="60" height="40" fill="none" stroke="blue" stroke-width="2" id="room-3412" class="room" /><text x="425" y="205" fill="blue" font_size="12">3412</text><rect x="490" y="190" width="60" height="40" fill="none" stroke="blue" stroke-width="2" id="room-3411" class="room" /><text x="495" y="205" fill="blue" font_size="12">3411</text><rect x="560" y="190" width="60" height="40" fill="none" stroke="blue" stroke-width="2" id="room-3410" class="room" /><text x="565" y="205" fill="blue" font_size="12">3410</text><rect x="630" y="190" width="60" height="40" fill="none" stroke="blue" stroke-width="2" id="room-3409" class="room" /><text x="635" y="205" fill="blue" font_size="12">3409</text><rect x="700" y="190" width="60" height="40" fill="none" stroke="blue" stroke-width="2" id="room-3408" class="room" /><text x="705" y="205" fill="blue" font_size="12">3408</text><rect x="770" y="190" width="60" height="40" fill="none" stroke="blue" stroke-width="2" id="room-3407" class="room" /><text x="775" y="205" fill="blue" font_size="12">3407</text><rect x="70" y="310" width="60" height="40" fill="none" stroke="blue" stroke-width="2" id="room-3418" class="room" /><text x="75" y="325" fill="blue" font_size="12">3418</text><rect x="70" y="380" width="60" height="40" fill="none" stroke="blue" stroke-width="2" id="room-3419" class="room" /><text x="75" y="395" fill="blue" font_size="12">3419</text><rect x="900" y="280" width="60" height="40" fill="none" stroke="blue" stroke-width="2" id="room-3406" class="room" /><text x="905" y="295" fill="blue" font_size="12">3406</text><rect x="900" y="360" width="60" height="40" fill="none" stroke="blue" stroke-width="2" id="room-3405" class="room" /><text x="905" y="375" fill="blue" font_size="12">3405</text><rect x="1030" y="360" width="60" height="40" fill="none" stroke="blue" stroke-width="2" id="room-3404" class="room" /><text x="1035" y="375" fill="blue" font_size="12">3404</text><rect x="1030" y="280" width="60" height="40" fill="none" stroke="blue" stroke-width="2" id="room-3403" class="room" /><text x="1035" y="295" fill="blue" font_size="12">3403</text><rect x="1030" y="200" width="60" height="40" fill="none" stroke="blue" stroke-width="2" id="room-3402" class="room" /><text x="1035" y="215" fill="blue" font_size="12">3402</text><rect x="1030" y="120" width="60" height="40" fill="none" stroke="blue" stroke-width="2" id="room-3401" class="room" /><text x="1035" y="135" fill="blue" font_size="12">3401</text><circle cx="50" cy="170" r="10" fill="green" stroke="black" stroke-width="1" id="exit-1" class="exit" /><text x="62" y="175" fill="green" font_size="10">exit-1</text><circle cx="870" cy="170" r="10" fill="green" stroke="black" stroke-width="1" id="exit-2" class="exit" /><text x="882" y="175" fill="green" font_size="10">exit-2</text><circle cx="870" cy="420" r="10" fill="green" stroke="black" stroke-width="1" id="exit-3" class="exit" /><text x="882" y="425" fill="green" font_size="10">exit-3</text></svg>