<?xml version="1.0" encoding="UTF-8"?>
<svg width="1350" height="500" viewBox="0 0 1350 500" xmlns="http://www.w3.org/2000/svg">
  <!-- Background -->
  <rect width="1350" height="500" fill="#f8f9fa" stroke="#333" stroke-width="2"/>
  
  <!-- Building outline -->
  <rect x="50" y="50" width="1250" height="400" fill="none" stroke="#000" stroke-width="3"/>
  
  <!-- LEFT STAIRCASE AND ROOMS -->
  <!-- Staircase (3419) -->
  <rect x="60" y="320" width="120" height="120" fill="#e9ecef" stroke="#666" stroke-width="2"/>
  <text x="120" y="385" text-anchor="middle" font-size="24" fill="#666" font-weight="bold">3419</text>
  
  <!-- Room 3418 -->
  <rect x="60" y="80" width="120" height="200" fill="#e3f2fd" stroke="#1976d2" stroke-width="2"/>
  <text x="120" y="185" text-anchor="middle" font-size="24" fill="#1976d2" font-weight="bold">3418</text>
  
  <!-- MAIN CORRIDOR -->
  <rect x="200" y="250" width="900" height="80" fill="#f5f5f5" stroke="#ddd" stroke-width="2"/>
  
  <!-- TOP ROW ROOMS -->
  <!-- Room 3417 -->
  <rect x="220" y="80" width="100" height="150" fill="#e3f2fd" stroke="#1976d2" stroke-width="2"/>
  <text x="270" y="160" text-anchor="middle" font-size="20" fill="#1976d2" font-weight="bold">3417</text>
  
  <!-- Room 3416 -->
  <rect x="340" y="80" width="100" height="150" fill="#e3f2fd" stroke="#1976d2" stroke-width="2"/>
  <text x="390" y="160" text-anchor="middle" font-size="20" fill="#1976d2" font-weight="bold">3416</text>
  
  <!-- Room 3415 -->
  <rect x="460" y="80" width="100" height="150" fill="#e3f2fd" stroke="#1976d2" stroke-width="2"/>
  <text x="510" y="160" text-anchor="middle" font-size="20" fill="#1976d2" font-weight="bold">3415</text>
  
  <!-- Room 3414 -->
  <rect x="580" y="80" width="100" height="150" fill="#e3f2fd" stroke="#1976d2" stroke-width="2"/>
  <text x="630" y="160" text-anchor="middle" font-size="20" fill="#1976d2" font-weight="bold">3414</text>
  
  <!-- Room 3412 - HIGHLIGHTED -->
  <rect x="700" y="80" width="100" height="150" fill="#e8f5e8" stroke="#00FF00" stroke-width="4"/>
  <text x="750" y="160" text-anchor="middle" font-size="20" fill="#00AA00" font-weight="bold">3412</text>
  
  <!-- Room 3411 -->
  <rect x="820" y="80" width="100" height="150" fill="#e3f2fd" stroke="#1976d2" stroke-width="2"/>
  <text x="870" y="160" text-anchor="middle" font-size="20" fill="#1976d2" font-weight="bold">3411</text>
  
  <!-- Room 3410 -->
  <rect x="940" y="80" width="100" height="150" fill="#e3f2fd" stroke="#1976d2" stroke-width="2"/>
  <text x="990" y="160" text-anchor="middle" font-size="20" fill="#1976d2" font-weight="bold">3410</text>
  
  <!-- Room 3409 -->
  <rect x="1060" y="80" width="100" height="150" fill="#e3f2fd" stroke="#1976d2" stroke-width="2"/>
  <text x="1110" y="160" text-anchor="middle" font-size="20" fill="#1976d2" font-weight="bold">3409</text>
  
  <!-- Room 3408 -->
  <rect x="1180" y="80" width="100" height="150" fill="#e3f2fd" stroke="#1976d2" stroke-width="2"/>
  <text x="1230" y="160" text-anchor="middle" font-size="20" fill="#1976d2" font-weight="bold">3408</text>
  
  <!-- Room 3407 -->
  <rect x="1180" y="250" width="100" height="120" fill="#e3f2fd" stroke="#1976d2" stroke-width="2"/>
  <text x="1230" y="315" text-anchor="middle" font-size="20" fill="#1976d2" font-weight="bold">3407</text>
  
  <!-- RIGHT WING ROOMS -->
  <!-- Room 3406 -->
  <rect x="1120" y="370" width="160" height="70" fill="#e3f2fd" stroke="#1976d2" stroke-width="2"/>
  <text x="1200" y="410" text-anchor="middle" font-size="20" fill="#1976d2" font-weight="bold">3406</text>
  
  <!-- Room 3405 -->
  <rect x="1120" y="330" width="80" height="100" fill="#e3f2fd" stroke="#1976d2" stroke-width="2"/>
  <text x="1160" y="385" text-anchor="middle" font-size="18" fill="#1976d2" font-weight="bold">3405</text>
  
  <!-- Room 3404 -->
  <rect x="1200" y="330" width="80" height="100" fill="#e3f2fd" stroke="#1976d2" stroke-width="2"/>
  <text x="1240" y="385" text-anchor="middle" font-size="18" fill="#1976d2" font-weight="bold">3404</text>
  
  <!-- Room 3403 -->
  <rect x="1000" y="350" width="100" height="90" fill="#e3f2fd" stroke="#1976d2" stroke-width="2"/>
  <text x="1050" y="400" text-anchor="middle" font-size="18" fill="#1976d2" font-weight="bold">3403</text>
  
  <!-- Room 3402 -->
  <rect x="880" y="350" width="100" height="90" fill="#e3f2fd" stroke="#1976d2" stroke-width="2"/>
  <text x="930" y="400" text-anchor="middle" font-size="18" fill="#1976d2" font-weight="bold">3402</text>
  
  <!-- Room 3401 -->
  <rect x="760" y="350" width="100" height="90" fill="#e3f2fd" stroke="#1976d2" stroke-width="2"/>
  <text x="810" y="400" text-anchor="middle" font-size="18" fill="#1976d2" font-weight="bold">3401</text>
  
  <!-- EXIT - RIGHT SIDE -->
  <rect x="1300" y="320" width="40" height="60" fill="#ffcdd2" stroke="#f44336" stroke-width="3"/>
  <text x="1320" y="355" text-anchor="middle" font-size="16" fill="#c62828" font-weight="bold">EXIT</text>
  
  <!-- GREEN LINE ROUTE FROM ROOM 3412 TO EXIT -->
  <defs>
    <marker id="greenArrow" markerWidth="15" markerHeight="15" refX="12" refY="6" orient="auto" markerUnits="strokeWidth">
      <path d="M2,2 L2,11 L10,6 z" fill="#00FF00" stroke="#00AA00" stroke-width="1"/>
    </marker>
  </defs>
  
  <!-- GREEN LINE PATH -->
  <g id="greenRoute" stroke="#00FF00" stroke-width="8" fill="none" opacity="0.9">
    <!-- Step 1: From room 3412 door to corridor -->
    <path d="M 750 230 L 750 270" marker-end="url(#greenArrow)"/>
    
    <!-- Step 2: Along main corridor to the right -->
    <path d="M 750 270 L 1100 270" stroke-dasharray="none"/>
    
    <!-- Step 3: Turn toward right exit -->
    <path d="M 1100 270 L 1100 350" stroke-dasharray="none"/>
    
    <!-- Step 4: Final approach to exit -->
    <path d="M 1100 350 L 1300 350" stroke-dasharray="none" marker-end="url(#greenArrow)"/>
    
    <!-- Path markers for clarity -->
    <circle cx="750" cy="230" r="8" fill="#00FF00" stroke="#fff" stroke-width="3"/>
    <circle cx="750" cy="270" r="8" fill="#00FF00" stroke="#fff" stroke-width="3"/>
    <circle cx="1100" cy="270" r="8" fill="#00FF00" stroke="#fff" stroke-width="3"/>
    <circle cx="1100" cy="350" r="8" fill="#00FF00" stroke="#fff" stroke-width="3"/>
    <circle cx="1300" cy="350" r="12" fill="#FF0000" stroke="#fff" stroke-width="4"/>
    
    <!-- Direction indicators -->
    <text x="770" y="255" font-size="20" fill="#00AA00" font-weight="bold">⬇</text>
    <text x="920" y="285" font-size="20" fill="#00AA00" font-weight="bold">➡</text>
    <text x="1115" y="310" font-size="20" fill="#00AA00" font-weight="bold">⬇</text>
    <text x="1200" y="365" font-size="20" fill="#00AA00" font-weight="bold">➡</text>
  </g>
  
  <!-- DOORS -->
  <g id="doors" stroke="#333" stroke-width="3" fill="none">
    <!-- Top room doors to corridor -->
    <line x1="270" y1="230" x2="270" y2="250"/>
    <line x1="390" y1="230" x2="390" y2="250"/>
    <line x1="510" y1="230" x2="510" y2="250"/>
    <line x1="630" y1="230" x2="630" y2="250"/>
    <line x1="750" y1="230" x2="750" y2="250"/>
    <line x1="870" y1="230" x2="870" y2="250"/>
    <line x1="990" y1="230" x2="990" y2="250"/>
    <line x1="1110" y1="230" x2="1110" y2="250"/>
    <line x1="1230" y1="230" x2="1230" y2="250"/>
    
    <!-- Side room doors -->
    <line x1="1230" y1="370" x2="1230" y2="390"/>
    <line x1="1180" y1="350" x2="1180" y2="370"/>
    
    <!-- Left wing doors -->
    <line x1="120" y1="280" x2="120" y2="320"/>
    <line x1="180" y1="185" x2="200" y2="185"/>
  </g>
  
  <!-- LEGEND -->
  <g id="legend" transform="translate(50, 20)">
    <rect x="0" y="0" width="400" height="50" fill="rgba(255,255,255,0.95)" stroke="#ccc" stroke-width="2"/>
    <text x="10" y="20" font-size="18" font-weight="bold" fill="#333">ACIL ÇIKIŞ PLANI - ODA 3412</text>
    
    <rect x="10" y="25" width="20" height="10" fill="#e3f2fd" stroke="#1976d2" stroke-width="1"/>
    <text x="35" y="35" font-size="12" fill="#666">Oda</text>
    
    <rect x="80" y="25" width="20" height="10" fill="#ffcdd2" stroke="#f44336" stroke-width="1"/>
    <text x="105" y="35" font-size="12" fill="#666">Çıkış</text>
    
    <line x1="150" y1="30" x2="180" y2="30" stroke="#00FF00" stroke-width="4" marker-end="url(#greenArrow)"/>
    <text x="185" y="35" font-size="12" fill="#666">Yeşil Çizgi Rotası</text>
  </g>
  
  <!-- START INDICATOR for Room 3412 -->
  <g id="startIndicator" transform="translate(750, 100)">
    <circle cx="0" cy="0" r="15" fill="#FF5722" stroke="#d84315" stroke-width="3"/>
    <text x="0" y="6" text-anchor="middle" font-size="18" fill="#fff" font-weight="bold">START</text>
    <text x="0" y="-25" text-anchor="middle" font-size="14" fill="#FF5722" font-weight="bold">SİZ BURADASINIZ</text>
  </g>
</svg> 