<?xml version="1.0" standalone="no"?>
<!DOCTYPE svg PUBLIC "-//W3C//DTD SVG 20010904//EN"
 "http://www.w3.org/TR/2001/REC-SVG-20010904/DTD/svg10.dtd">
<svg version="1.0" xmlns="http://www.w3.org/2000/svg"
 width="1241.000000pt" height="403.000000pt" viewBox="0 0 1241.000000 403.000000"
 preserveAspectRatio="xMidYMid meet">

<g transform="translate(0.000000,403.000000) scale(0.100000,-0.100000)"
fill="#000000" stroke="none">
<path d="M422 3861 c-9 -5 -12 -24 -10 -52 2 -36 7 -44 23 -44 17 0 20 6 17
45 -3 50 -11 63 -30 51z"/>
<path d="M1796 3863 c-3 -4 -6 -24 -6 -45 0 -32 -3 -38 -22 -39 -22 -1 -22 -1
2 -9 54 -17 60 -14 60 39 0 33 -5 51 -14 54 -8 3 -17 3 -20 0z"/>
<path d="M9003 3863 c-8 -3 -13 -24 -13 -54 0 -42 3 -49 20 -49 17 0 20 7 20
49 0 51 -6 62 -27 54z"/>
<path d="M10650 3809 c0 -43 3 -50 18 -47 13 2 18 15 20 51 3 42 1 47 -17 47
-18 0 -21 -6 -21 -51z"/>
<path d="M808 3773 c172 -2 451 -2 620 0 169 1 28 2 -313 2 -341 0 -479 -1
-307 -2z"/>
<path d="M1728 3645 l4 -65 -71 0 c-38 0 -72 -4 -76 -9 -3 -6 -224 -9 -568 -8
l-562 2 -3 28 c-2 19 -9 27 -23 27 -18 0 -19 -9 -19 -240 l0 -240 -29 0 c-24
0 -28 -3 -24 -20 3 -13 14 -20 29 -20 l24 0 0 -326 0 -325 -22 3 c-21 3 -24
10 -29 73 l-5 70 -2 -67 -2 -68 -43 0 c-24 0 -78 -3 -120 -6 -72 -7 -77 -8
-77 -30 0 -19 5 -24 25 -24 25 0 25 -1 25 -90 0 -74 3 -91 17 -99 16 -8 17
-34 17 -270 0 -230 -2 -262 -17 -279 -12 -14 -17 -37 -17 -85 0 -65 -1 -67
-25 -67 -18 0 -25 -5 -25 -20 0 -19 7 -20 150 -20 150 0 150 0 150 -23 0 -13
5 -28 12 -35 18 -18 18 -543 1 -549 -7 -3 -13 -14 -13 -24 0 -16 -8 -19 -50
-19 l-50 0 0 -150 0 -150 35 -1 c19 -1 41 -2 48 -3 9 -1 13 -51 15 -208 l2
-208 595 0 c588 0 595 0 595 20 0 16 -7 20 -30 20 -27 0 -30 3 -30 30 0 17 -4
30 -10 30 -6 0 -10 35 -10 85 0 50 4 85 10 85 6 0 10 33 10 80 0 47 -4 80 -10
80 -6 0 -10 42 -10 105 0 63 4 105 10 105 6 0 10 9 10 20 0 19 7 20 155 20
148 0 155 1 155 20 0 19 -7 20 -155 20 -148 0 -155 1 -155 20 0 11 -4 20 -10
20 -6 0 -10 98 -10 275 0 177 4 275 10 275 6 0 10 43 10 110 l0 110 155 0 155
0 0 150 0 150 24 0 c13 0 26 6 29 13 3 9 66 12 272 12 206 0 269 -3 273 -12 2
-7 10 -13 18 -13 11 0 14 -27 14 -150 0 -143 1 -150 20 -150 19 0 20 7 20 150
l0 150 24 0 c13 0 26 6 29 13 3 9 66 12 272 12 206 0 269 -3 273 -12 2 -7 15
-13 28 -13 l24 0 0 -150 c0 -143 1 -150 20 -150 23 0 21 -10 20 173 l-1 127
25 0 c13 0 26 6 29 13 6 18 538 18 545 0 2 -7 15 -13 28 -13 l24 0 0 -150 c0
-143 1 -150 20 -150 19 0 20 7 20 150 l0 150 24 0 c13 0 26 6 29 12 6 19 538
19 545 1 2 -7 15 -13 28 -13 l24 0 0 -150 c0 -143 1 -150 20 -150 19 0 20 7
20 150 l0 150 24 0 c13 0 26 6 28 13 7 18 539 18 546 0 2 -7 15 -13 28 -13
l24 0 0 -150 c0 -143 1 -150 20 -150 19 0 20 7 20 146 0 123 3 148 17 162 15
15 47 17 281 17 203 0 266 -3 270 -12 2 -8 20 -13 43 -13 l39 0 0 -150 0 -150
25 0 25 0 0 150 0 150 39 0 c22 0 41 5 43 12 7 19 529 18 551 -1 14 -11 17
-36 17 -162 0 -142 1 -149 20 -149 19 0 20 7 20 150 l0 150 24 0 c13 0 26 6
29 13 3 9 66 12 272 12 206 0 269 -3 273 -12 2 -7 15 -13 28 -13 l24 0 0 -150
c0 -143 1 -150 20 -150 19 0 20 7 20 150 l0 150 24 0 c13 0 26 6 29 12 6 19
538 19 545 1 2 -7 15 -13 28 -13 l24 0 0 -150 c0 -143 1 -150 20 -150 19 0 20
7 20 150 0 123 3 150 14 150 8 0 16 6 18 12 6 18 532 18 549 1 7 -7 26 -13 41
-13 l28 0 0 -150 c0 -143 1 -150 20 -150 19 0 20 7 20 185 l0 185 125 0 125 0
0 -64 c0 -39 4 -66 11 -68 17 -6 17 -540 1 -546 -7 -2 -12 -24 -12 -53 l0 -49
-144 0 c-139 0 -144 -1 -139 -20 5 -19 14 -20 144 -20 l139 0 0 -43 c0 -24 5
-48 11 -54 18 -18 19 -475 2 -480 -9 -3 -13 -29 -13 -84 0 -72 -2 -79 -20 -79
-13 0 -20 -7 -20 -20 0 -20 7 -20 724 -20 634 0 725 2 730 15 8 21 138 21 160
0 13 -13 112 -15 775 -15 754 0 761 0 761 20 0 15 -7 20 -25 20 -25 0 -25 1
-25 84 0 59 -4 86 -12 89 -17 5 -16 469 1 475 6 2 11 24 11 48 l0 44 150 0
c143 0 150 1 150 20 0 19 -7 20 -150 20 l-150 0 0 49 c0 30 -5 51 -12 53 -18
6 -18 540 0 546 7 2 12 22 12 48 l0 44 150 0 c143 0 150 1 150 20 0 23 8 22
-165 24 l-130 1 -3 45 c-2 24 -9 48 -15 52 -17 10 -17 536 0 546 6 4 13 28 15
52 l3 45 130 2 c172 2 165 1 165 18 0 18 5 18 -160 19 l-135 1 -3 45 c-2 24
-8 48 -14 51 -16 10 -17 467 -1 477 7 5 13 39 15 87 3 74 5 80 26 83 29 4 29
32 0 32 -13 0 -329 1 -703 3 l-680 2 -3 28 c-2 19 -9 27 -22 27 -13 0 -20 -8
-22 -27 -2 -23 -8 -28 -30 -28 -14 0 -30 -3 -33 -7 -4 -4 -7 -42 -6 -84 1 -53
-2 -80 -11 -86 -10 -6 -8 -8 5 -8 14 0 17 9 17 59 0 75 6 91 36 91 l24 0 0
-180 0 -180 -30 0 -30 0 0 -65 0 -65 70 0 70 0 0 31 c0 17 4 28 10 24 6 -3 10
-35 10 -71 0 -54 -3 -64 -17 -64 -17 0 -18 -16 -18 -195 0 -167 2 -194 15
-192 12 2 16 -12 18 -65 3 -60 1 -68 -15 -68 -16 0 -18 -7 -15 -40 4 -40 4
-40 -32 -40 l-36 0 -2 -122 c-1 -68 -1 -216 0 -330 1 -132 -2 -208 -8 -208 -6
0 -10 -29 -10 -65 l0 -65 -52 -1 c-71 -1 -51 -6 55 -14 48 -4 85 -10 82 -15
-3 -4 4 -10 16 -13 18 -5 20 -12 17 -69 -2 -49 -6 -63 -18 -62 -13 1 -15 -27
-15 -193 0 -177 1 -193 18 -193 14 0 17 -10 17 -64 0 -36 -4 -68 -10 -71 -5
-3 -10 3 -10 14 0 19 -6 21 -70 21 l-70 0 0 -65 0 -65 43 -1 c23 0 36 -3 30
-6 -10 -3 -13 -47 -13 -169 l0 -164 -166 0 -165 0 3 90 c3 80 1 90 -14 90 -15
0 -18 10 -18 65 0 56 3 65 18 65 14 0 17 7 14 40 -4 40 -4 40 31 40 l34 0 8
234 c4 129 4 244 0 255 -4 13 -2 21 5 21 8 0 9 7 5 17 -12 29 -13 73 -1 73 6
0 4 5 -4 10 -11 7 -4 10 28 10 l42 0 0 45 c0 45 0 45 -35 45 -59 0 -39 20 23
22 l57 1 -55 6 -55 6 0 63 c0 34 -3 62 -7 62 -5 0 -8 -29 -8 -65 l0 -65 -36 0
-36 0 4 75 c3 66 1 75 -14 75 -15 0 -18 10 -18 65 0 56 3 65 18 65 14 0 17 7
14 40 -4 40 -4 40 32 40 l36 0 0 55 0 55 -652 2 c-359 1 -735 0 -835 -1 l-183
-4 0 227 0 226 788 2 c433 2 653 4 488 5 l-298 3 6 35 c5 27 4 35 -7 35 -17 0
-26 44 -19 90 2 17 9 30 16 30 8 0 10 31 8 106 l-4 106 46 -3 c39 -4 46 -1 46
13 0 15 10 18 65 18 55 0 65 -3 65 -17 0 -16 9 -18 72 -15 50 3 76 8 81 18 6
10 27 14 72 14 55 0 65 -3 65 -17 0 -15 8 -18 55 -15 45 3 55 1 55 -12 0 -12
10 -16 35 -16 l35 0 0 330 0 330 24 0 c13 0 26 -6 29 -12 7 -22 16 -4 10 22
l-4 25 -710 -3 -709 -2 0 30 c0 23 -4 30 -20 30 -11 0 -20 -4 -20 -10 0 -5
-13 -10 -30 -10 -16 0 -30 -4 -30 -10 0 -6 -30 -10 -70 -10 -40 0 -70 4 -70
10 0 14 -237 13 -242 0 -4 -14 -422 -14 -426 0 -5 13 -262 13 -262 0 0 -6 -78
-10 -215 -10 -137 0 -215 4 -215 10 0 6 -50 10 -130 10 -80 0 -130 -4 -130
-10 0 -6 -78 -10 -215 -10 -137 0 -215 4 -215 10 0 6 -50 10 -130 10 -80 0
-130 -4 -130 -10 0 -6 -78 -10 -215 -10 -137 0 -215 4 -215 10 0 6 -50 10
-130 10 -80 0 -130 -4 -130 -10 0 -6 -76 -10 -209 -10 -129 0 -212 4 -216 10
-9 14 -262 13 -267 -1 -5 -14 -422 -13 -426 1 -5 13 -262 13 -262 0 0 -6 -78
-10 -215 -10 -137 0 -215 4 -215 10 0 15 -257 13 -262 -2 -3 -9 -57 -13 -213
-13 -156 0 -210 4 -213 13 -3 9 -39 12 -132 12 -93 0 -129 -3 -132 -12 -3 -9
-57 -13 -213 -13 -156 0 -210 4 -213 13 -5 17 -259 17 -264 0 -6 -18 -430 -18
-436 0 -2 7 -19 12 -38 12 -19 0 -34 5 -34 10 0 6 -9 10 -20 10 -15 0 -20 -7
-20 -26 0 -21 -4 -25 -22 -22 -21 3 -23 9 -26 71 -2 37 -6 67 -10 67 -4 0 -5
-29 -4 -65z m7 -100 c0 -11 3 -19 8 -17 4 1 30 2 57 2 38 0 50 4 50 15 0 13
128 15 1068 16 1327 1 5536 1 5845 0 l227 -1 0 -25 c0 -23 -4 -25 -45 -25
l-45 0 0 -70 0 -70 45 0 46 0 -3 -340 c-2 -267 0 -340 10 -340 8 0 12 -19 12
-60 0 -46 -3 -60 -14 -60 -11 0 -13 -9 -9 -35 l6 -36 -134 3 -134 3 -3 163 -2
162 40 0 40 0 0 50 c0 43 -3 50 -19 50 -17 0 -18 -3 -8 -30 9 -25 9 -33 -5
-47 -14 -13 -20 -14 -33 -3 -17 14 -17 70 0 70 5 0 3 5 -5 10 -11 7 -4 10 28
10 l42 0 0 50 0 50 -40 0 -40 0 0 151 0 150 -32 -3 c-30 -3 -33 -6 -36 -41 -3
-39 -3 -39 -43 -35 -27 2 -39 0 -39 -9 0 -9 -19 -13 -65 -13 -52 0 -65 3 -65
15 0 10 -7 15 -17 13 -14 -2 -19 5 -21 35 -3 35 -5 37 -38 37 -32 0 -34 2 -34
35 l0 35 -50 0 c-33 0 -50 -4 -51 -12 0 -10 -2 -10 -6 0 -3 7 -23 12 -49 12
-44 0 -44 0 -44 -35 l0 -35 -235 0 -235 0 0 -41 c0 -39 -2 -41 -25 -37 -17 4
-25 1 -25 -8 0 -11 -18 -14 -71 -14 -55 0 -70 3 -66 13 4 11 -5 13 -43 9 l-49
-4 -3 38 c-3 37 -5 39 -37 39 -33 0 -35 -2 -35 -35 l-1 -35 -53 0 c-39 1 -51
-2 -48 -12 4 -10 -11 -13 -64 -13 -52 0 -70 3 -70 14 0 9 -8 12 -25 8 -23 -4
-25 -2 -25 37 l0 41 -369 0 -370 0 -3 -37 c-3 -32 -7 -38 -25 -37 -13 0 -23
-5 -23 -13 0 -9 -18 -13 -65 -13 -50 0 -65 3 -65 14 0 11 -9 13 -34 9 -34 -5
-35 -5 -38 33 l-3 39 -70 0 -70 0 -3 -39 c-3 -36 -5 -38 -33 -34 -20 3 -29 0
-29 -9 0 -10 -19 -13 -71 -13 -58 0 -70 3 -66 14 4 11 -1 14 -21 13 -24 -2
-27 2 -30 36 -3 36 -4 37 -43 37 -38 0 -39 1 -39 35 0 32 -2 35 -30 35 -29 0
-30 2 -30 45 l0 45 -75 0 -75 0 0 -50 0 -50 55 0 c55 0 62 -6 56 -43 -1 -5 3
-6 9 -2 5 3 10 15 10 26 0 10 5 19 11 19 6 0 9 -7 6 -15 -4 -8 -2 -17 3 -20
16 -10 11 -45 -5 -45 -8 0 -15 5 -15 10 0 6 -103 10 -290 10 l-290 0 0 -40 c0
-33 -3 -40 -19 -40 -11 0 -22 6 -24 13 -3 6 -6 2 -6 -10 -1 -21 -5 -23 -66
-23 -48 0 -65 4 -65 14 0 10 -12 12 -49 8 l-50 -4 -3 38 c-3 37 -5 39 -38 39
-33 0 -35 -2 -36 -35 l0 -35 -51 0 c-37 1 -49 -3 -46 -12 4 -10 -12 -13 -67
-13 -60 0 -71 2 -66 15 4 12 0 14 -19 9 -20 -5 -25 -2 -30 18 -4 13 -5 31 -3
39 3 12 -51 14 -367 14 l-370 0 -3 -39 c-3 -34 -6 -38 -28 -33 -16 3 -24 0
-24 -9 0 -10 -17 -14 -65 -14 -48 0 -65 4 -65 14 0 10 -12 12 -49 8 l-50 -4
-3 38 c-3 36 -6 39 -35 42 -30 3 -32 1 -35 -35 l-3 -38 -48 0 c-31 0 -47 -4
-47 -12 0 -9 -21 -13 -70 -13 -52 0 -70 3 -70 14 0 9 -8 12 -25 8 -24 -4 -25
-2 -25 47 0 29 -5 51 -11 51 -5 0 -8 -4 -5 -9 7 -11 -31 -22 -50 -14 -8 3 -15
13 -15 22 -1 14 -2 14 -6 -1 -8 -31 -23 -19 -23 17 0 35 0 35 -45 35 -45 0
-45 0 -45 -35 l0 -35 -270 0 -270 0 0 -41 c0 -36 -2 -40 -20 -34 -14 4 -20 2
-18 -7 2 -9 -15 -14 -64 -16 -51 -2 -68 0 -68 10 0 10 -11 12 -39 10 -40 -4
-40 -4 -43 35 -3 35 -6 38 -35 41 l-33 3 0 -362 0 -362 -34 6 c-27 4 -33 2
-32 -11 1 -13 -11 -18 -54 -23 l-55 -6 48 -1 47 -2 0 -65 c0 -37 4 -65 10 -65
6 0 10 28 10 65 l0 65 30 0 30 0 0 -210 0 -210 -135 0 c-122 0 -135 2 -136 18
0 9 0 45 1 80 l1 63 -73 -3 -73 -3 0 -60 0 -60 55 -3 55 -3 -3 -74 c-3 -57 -7
-75 -18 -75 -10 0 -14 -14 -14 -55 0 -54 0 -54 35 -61 l35 -6 0 -60 c0 -51 -3
-61 -20 -65 -19 -5 -20 -14 -20 -129 l0 -124 -30 0 c-21 0 -30 -5 -30 -16 0
-8 -4 -13 -9 -10 -5 3 -11 -3 -14 -15 -5 -18 -12 -20 -69 -17 -51 2 -63 6 -62
19 1 14 -6 16 -37 12 l-39 -6 0 302 c0 294 0 301 -20 301 -17 0 -20 7 -22 58
l-2 57 -3 -57 -4 -58 -59 0 c-53 0 -59 2 -63 23 -4 19 -4 18 -6 -5 -1 -28 0
-28 67 -30 37 -1 7 -5 -68 -8 l-135 -5 -5 -128 c-3 -70 -2 -127 2 -127 3 0 12
-2 20 -5 10 -4 13 18 13 111 l0 117 120 -1 120 0 3 -91 3 -91 -51 0 c-27 0
-50 -4 -50 -10 0 -5 22 -10 49 -10 l48 0 0 -40 c0 -30 -4 -40 -15 -40 -14 0
-14 -2 1 -12 10 -9 15 -25 14 -48 -2 -35 -2 -35 -50 -35 l-47 0 0 -82 0 -81
-72 1 -73 2 0 90 0 90 70 6 70 5 -70 2 c-113 3 -111 4 -107 -89 l4 -79 -344 2
-343 3 -1 424 c-1 505 -5 481 92 481 60 0 64 -2 64 -22 0 -21 5 -23 60 -26 58
-3 60 -2 60 23 l0 25 205 0 205 0 0 -50 c0 -38 4 -50 15 -50 11 0 15 12 15 50
l0 50 126 0 126 0 -4 -110 c-3 -90 -1 -109 10 -105 8 3 18 5 23 5 5 0 9 47 9
105 0 119 17 144 23 33 l3 -73 1 75 c2 106 -3 115 -62 111 -46 -3 -47 -2 -41
22 4 19 2 24 -12 23 -14 -1 -17 8 -17 64 0 52 3 65 15 64 24 -2 21 73 -2 79
-15 4 -18 16 -18 61 0 49 2 56 20 56 21 0 27 15 10 25 -5 3 -10 27 -10 51 l0
46 65 -4 c47 -2 65 0 65 10 0 8 19 12 60 12 41 0 60 -4 60 -12 0 -9 17 -12 59
-10 56 3 60 2 63 -20 2 -18 9 -23 33 -23 l30 0 3 218 2 217 49 0 49 0 4 70 c3
77 6 74 -65 71 -25 -1 -36 2 -32 10 4 5 13 8 21 5 9 -4 18 4 24 20 9 24 14 25
68 22 49 -3 57 -6 57 -23z m9245 -65 c0 -38 4 -50 15 -50 11 0 15 12 15 45 l0
45 80 0 80 0 0 -160 0 -160 -80 0 -80 0 0 45 c0 33 -4 45 -15 45 -11 0 -15
-11 -15 -43 l0 -43 -75 -2 -75 -2 -2 57 -2 58 -3 -57 -4 -58 -69 0 c-70 0 -70
0 -70 28 0 15 4 44 9 64 5 22 5 36 0 32 -5 -3 -9 2 -9 10 0 12 15 16 68 18
l67 3 3 88 3 87 79 0 80 0 0 -50z m968 -37 l3 -83 30 0 29 0 -2 -287 -3 -288
-402 -3 -403 -2 0 60 c0 47 -3 60 -15 60 -12 0 -15 -13 -15 -58 l0 -58 -206 1
-205 0 -2 80 -2 80 68 3 c66 3 67 3 66 30 0 25 -1 26 -9 5 -7 -18 -16 -21 -59
-19 -28 2 -53 5 -55 7 -2 2 -6 48 -9 102 l-6 97 40 0 c24 0 38 4 34 10 -4 6
17 10 54 10 34 0 61 -4 61 -10 0 -6 50 -10 130 -10 l130 0 0 180 0 180 373 -2
372 -3 3 -82z m-11190 21 c3 -39 1 -42 -29 -48 -17 -3 -58 -6 -90 -6 l-58 0
-3 -52 -3 -53 -55 1 -55 0 -3 102 -3 103 148 -3 148 -3 3 -41z m312 -64 l0
-110 -43 0 c-55 0 -67 13 -67 72 l0 48 -63 0 c-40 0 -70 5 -85 16 -12 8 -22
10 -22 5 0 -6 -4 -11 -10 -11 -11 0 -14 73 -3 83 3 4 71 7 150 7 l143 0 0
-110z m420 54 c0 -71 -24 -70 -28 2 l-3 48 -32 -37 c-32 -36 -33 -37 -152 -52
-168 -21 -155 -25 -155 40 l0 55 185 0 185 0 0 -56z m7851 12 l4 -44 -44 -6
c-24 -3 -63 -6 -87 -6 l-44 0 0 -44 c0 -59 -12 -66 -102 -57 -10 1 -11 185 -1
194 3 4 66 7 139 7 l132 0 3 -44z m284 -66 l0 -105 -52 -3 c-49 -3 -52 -2 -51
20 1 13 1 40 0 61 l-2 37 -62 0 c-73 0 -98 17 -98 67 l0 34 133 -3 132 -3 0
-105z m685 102 c0 -5 -8 -16 -18 -25 -14 -13 -67 -19 -257 -32 -132 -9 -266
-18 -297 -22 l-58 -5 0 46 0 46 315 0 c173 0 315 -4 315 -8z m-8660 -13 c0
-14 -36 -29 -59 -24 -12 2 -19 0 -16 -6 4 -5 12 -9 19 -9 8 0 16 -13 18 -30 4
-28 3 -30 -29 -30 -18 0 -36 0 -40 0 -11 1 -3 54 9 61 6 4 8 14 5 22 -3 8 -3
17 -1 20 8 8 94 4 94 -4z m7380 -19 c0 -21 -5 -30 -16 -30 -11 0 -14 -5 -10
-16 10 -25 -11 -42 -46 -38 -17 2 -34 6 -36 9 -9 9 31 33 45 28 7 -3 13 0 13
6 0 6 -6 11 -14 11 -9 0 -12 7 -9 20 3 12 0 20 -6 20 -7 0 -9 5 -6 10 3 6 24
10 46 10 37 0 39 -2 39 -30z m-3579 1 c23 -19 24 -19 5 -40 -22 -24 -51 -29
-42 -6 3 9 0 15 -9 15 -8 0 -15 5 -15 10 0 6 7 10 15 10 9 0 12 6 9 15 -8 21
9 19 37 -4z m5329 -30 c0 -9 3 -26 6 -38 5 -19 2 -23 -15 -23 -19 0 -21 6 -21
58 1 52 2 55 15 38 8 -11 15 -27 15 -35z m-10022 -56 c3 -3 -2 -5 -11 -5 -10
0 -17 -4 -17 -10 0 -5 7 -10 15 -10 10 0 15 -10 15 -30 l0 -29 -72 4 c-40 2
-76 4 -80 5 -5 0 -8 17 -8 38 0 21 3 42 8 46 7 8 141 0 150 -9z m180 -44 l3
-54 -75 6 c-41 3 -80 8 -86 12 -13 8 -13 85 0 85 6 0 10 -5 10 -11 0 -5 10 -3
23 6 15 10 39 15 72 13 l50 -3 3 -54z m1762 40 c0 -11 5 -21 12 -23 16 -6 2
-38 -17 -38 -11 0 -15 11 -15 40 0 22 5 40 10 40 6 0 10 -9 10 -19z m5462 -1
c-2 -7 2 -17 9 -21 15 -9 3 -42 -14 -37 -6 3 -12 21 -13 42 -1 23 3 35 10 33
6 -3 10 -10 8 -17z m1151 11 c25 -1 27 -4 27 -45 l0 -44 -65 4 c-36 1 -69 6
-75 9 -11 7 -14 68 -4 77 3 4 24 5 47 3 23 -2 54 -4 70 -4z m185 -48 l3 -53
-48 0 c-77 0 -93 8 -93 42 0 44 30 66 88 64 l47 -1 3 -52z m-1181 31 c9 -24
-20 -48 -48 -38 -13 4 -30 7 -36 6 -7 -2 -13 6 -13 18 0 11 5 20 10 20 6 0 10
-5 10 -11 0 -6 7 -3 16 5 20 21 53 20 61 0z m-5567 -24 c0 -16 -4 -30 -10 -30
-5 0 -10 14 -10 30 0 17 5 30 10 30 6 0 10 -13 10 -30z m2790 0 c0 -16 -4 -30
-10 -30 -5 0 -10 14 -10 30 0 17 5 30 10 30 6 0 10 -13 10 -30z m2670 -1 c0
-17 -4 -28 -10 -24 -11 7 -9 55 2 55 4 0 8 -14 8 -31z m-6720 -159 l0 -180
-22 0 c-19 0 -20 2 -8 10 10 6 11 10 3 10 -10 0 -13 37 -13 151 0 97 4 148 10
144 6 -3 10 -2 10 3 0 18 -31 22 -153 21 -124 0 -178 -9 -144 -22 15 -6 17
-25 17 -146 0 -123 -2 -141 -17 -150 -16 -9 -16 -10 -2 -11 26 0 30 24 32 170
l2 135 115 0 115 0 1 -150 c1 -91 -2 -152 -8 -156 -17 -11 -48 2 -49 20 0 10
-2 11 -6 4 -6 -17 -105 -17 -121 -1 -9 9 -12 9 -12 -4 0 -15 -44 -28 -97 -28
l-23 0 0 180 0 180 185 0 185 0 0 -180z m8830 -38 l0 -217 -320 0 -320 0 0
218 0 217 320 0 320 0 0 -218z m-7715 167 c11 -17 -16 -69 -39 -74 -11 -3 -41
-6 -66 -8 -27 -2 -14 -4 33 -5 76 -2 77 -2 77 23 0 14 5 25 10 25 16 0 11 -47
-6 -54 -9 -3 -60 -6 -114 -6 -54 0 -105 3 -114 6 -17 7 -22 54 -6 54 6 0 10 8
10 18 0 10 3 22 7 25 11 12 201 8 208 -4z m1385 -4 c0 -9 -7 -29 -15 -45 -14
-27 -20 -29 -78 -33 -61 -3 -61 -3 16 -5 l77 -2 0 31 c0 17 4 28 10 24 16 -10
12 -52 -6 -59 -9 -3 -62 -6 -119 -6 -87 0 -106 3 -113 17 -6 9 -6 26 -2 37 5
12 11 29 14 39 5 15 19 17 111 17 88 0 105 -2 105 -15z m1380 -2 c0 -10 -6
-29 -13 -43 -11 -22 -21 -26 -77 -31 l-65 -6 78 -1 c76 -2 77 -2 77 23 0 14 5
25 10 25 16 0 11 -47 -6 -54 -9 -3 -63 -6 -120 -6 l-104 0 0 48 c0 27 3 52 7
55 3 4 53 7 110 7 91 0 103 -2 103 -17z m1390 7 c0 -6 -6 -26 -14 -45 -14 -33
-17 -34 -78 -38 l-63 -3 78 -2 c76 -2 77 -2 77 23 0 14 5 25 10 25 16 0 11
-47 -6 -54 -9 -3 -60 -6 -114 -6 -54 0 -105 3 -114 6 -17 7 -22 54 -6 54 6 0
10 11 10 25 l0 25 110 0 c69 0 110 -4 110 -10z m1373 -3 c3 -7 -1 -27 -8 -45
-13 -29 -17 -31 -77 -35 l-63 -3 78 -2 c76 -2 77 -2 77 23 0 14 5 25 10 25 16
0 11 -47 -6 -54 -9 -3 -60 -6 -114 -6 -54 0 -105 3 -114 6 -17 7 -22 54 -6 54
6 0 10 8 10 18 0 10 3 22 7 25 3 4 50 7 104 7 70 0 98 -4 102 -13z m-5420 -14
c10 -9 57 -10 57 -1 0 4 18 8 40 8 l40 0 0 -55 0 -55 -60 0 c-59 0 -60 0 -59
-27 1 -23 3 -24 6 -6 4 19 10 21 56 20 l52 -2 3 -53 c3 -44 0 -52 -15 -53 -17
-1 -17 -2 0 -6 9 -2 17 -13 17 -24 0 -16 -7 -19 -50 -19 -27 0 -50 -4 -50 -10
0 -5 23 -10 50 -10 l50 0 0 -85 0 -85 -165 0 -165 0 0 85 0 85 50 0 c28 0 50
5 50 10 0 6 -22 10 -50 10 l-50 0 0 85 0 85 60 0 60 0 0 49 c0 30 5 51 13 54
18 8 53 8 60 0z m2762 -2 c-6 -10 47 -10 55 0 3 3 22 4 43 1 l37 -4 0 -49 0
-49 -60 0 c-56 0 -60 -2 -59 -22 1 -17 3 -18 6 -6 4 14 14 17 61 14 71 -4 84
1 77 25 -5 15 -1 19 19 19 20 0 26 -5 27 -22 l2 -23 4 23 c4 20 10 22 64 22
l59 0 2 -67 1 -68 6 65 c6 62 7 65 34 68 l27 3 0 -70 c0 -69 1 -71 25 -71 l26
0 -3 -122 -3 -123 -49 0 c-30 -1 -51 -6 -54 -13 -2 -8 13 -12 52 -12 l56 0 0
-390 0 -390 -40 0 c-39 0 -40 -1 -40 -35 l0 -35 -285 0 -285 0 0 425 0 425
185 0 c102 0 185 4 185 8 0 4 -5 13 -11 19 -7 7 -10 51 -7 122 l3 111 -30 -1
c-17 -1 -22 -3 -12 -6 9 -2 17 -13 17 -24 0 -16 -7 -19 -50 -19 -27 0 -50 -4
-50 -10 0 -5 23 -10 50 -10 l50 0 0 -85 0 -85 -165 0 -165 0 0 85 0 85 50 0
c28 0 50 5 50 10 0 6 -22 10 -50 10 l-50 0 0 86 0 85 48 -1 c74 -3 72 -4 72
49 0 46 2 50 28 54 49 7 53 7 47 -2z m2765 0 c0 -12 52 -9 61 2 3 5 22 5 43 2
36 -7 36 -8 36 -56 l0 -49 -60 0 c-33 0 -60 -4 -60 -9 0 -4 26 -8 58 -7 l57 1
3 -52 c3 -45 0 -53 -15 -54 -17 -1 -17 -2 0 -6 9 -2 17 -13 17 -24 0 -16 -7
-19 -50 -19 -27 0 -50 -4 -50 -10 0 -5 23 -10 50 -10 l50 0 0 -85 0 -85 -165
0 -165 0 0 85 0 85 50 0 c33 0 50 4 50 13 0 8 -15 11 -50 9 l-50 -4 0 87 0 86
48 -1 c26 -1 53 -1 60 -1 8 1 12 19 12 56 l0 55 35 0 c19 0 35 -4 35 -9z
m-5880 -47 c0 -23 5 -46 12 -50 7 -4 34 -6 60 -5 l48 2 0 -86 0 -87 -50 4
c-35 2 -50 -1 -50 -9 0 -9 17 -13 50 -13 l50 0 0 -85 0 -85 -165 0 -165 0 0
85 0 85 50 0 c28 0 50 5 50 10 0 6 -22 10 -50 10 -38 0 -50 4 -50 15 0 9 7 18
16 22 21 8 -1 22 -25 16 -14 -3 -16 -19 -13 -115 3 -71 0 -114 -7 -121 -6 -6
-11 -15 -11 -19 0 -4 83 -8 185 -8 l185 0 0 -425 0 -425 -289 0 -290 0 -3 33
c-2 24 -8 33 -25 35 l-23 3 0 390 0 389 50 0 c48 0 73 19 28 21 -81 3 -73 -9
-76 122 -2 100 0 117 13 117 12 0 15 14 15 76 l0 76 38 -4 37 -3 6 -65 5 -65
2 68 2 67 60 0 c55 0 60 -2 61 -22 l2 -23 4 23 c2 12 11 22 19 22 11 0 13 -6
9 -20 -7 -22 -11 -21 87 -23 75 -2 75 11 1 15 l-58 3 -3 47 -3 46 105 0 106 0
0 -44z m1382 -3 l3 -46 58 -3 57 -3 0 -84 0 -85 -50 0 c-27 0 -50 -4 -50 -10
0 -5 23 -10 50 -10 l50 0 0 -85 0 -85 -165 0 -165 0 0 85 0 85 50 0 c28 0 50
5 50 10 0 6 -22 10 -50 10 -53 0 -68 18 -32 39 9 6 11 11 5 11 -9 0 -13 18
-13 55 l0 54 55 -2 c30 -2 55 1 55 5 0 4 -27 8 -60 8 l-60 0 0 49 0 49 104 0
105 0 3 -47z m352 37 c-6 -10 -4 -10 7 -2 8 6 40 12 72 13 l57 2 0 -51 0 -50
-54 0 c-30 0 -57 -3 -60 -8 -2 -4 26 -7 62 -6 87 2 83 1 80 22 -3 15 7 17 82
17 l85 0 0 -63 c0 -34 3 -62 8 -62 4 0 7 29 7 65 l0 65 48 -2 47 -3 1 -65 c0
-36 4 -72 8 -81 4 -8 5 -64 4 -125 l-3 -109 -49 0 c-30 -1 -51 -6 -54 -13 -2
-8 13 -12 52 -12 l56 0 0 -390 c0 -340 -2 -390 -15 -390 -10 0 -15 -11 -15
-35 l0 -35 -310 0 -310 0 0 425 0 425 185 0 c170 0 207 5 175 25 -6 4 -9 50
-7 120 4 119 0 129 -38 114 -17 -6 -17 -8 -2 -8 10 -1 17 -9 17 -21 0 -17 -7
-20 -50 -20 -27 0 -50 -4 -50 -10 0 -5 23 -10 50 -10 l50 0 0 -85 0 -85 -165
0 -165 0 0 85 0 85 50 0 c28 0 50 5 50 10 0 6 -22 10 -50 10 l-50 0 0 86 0 85
48 -1 c74 -3 72 -4 72 50 l0 50 41 0 c29 0 38 -3 33 -12z m1027 -17 c0 -23 1
-24 9 -6 8 18 9 17 9 -8 1 -16 -3 -26 -9 -22 -5 3 -10 -1 -10 -9 0 -23 19 -30
72 -27 l48 2 0 -85 0 -86 -50 0 c-27 0 -50 -4 -50 -10 0 -5 23 -10 50 -10 l50
0 0 -85 0 -85 -165 0 -165 0 0 85 0 85 50 0 c28 0 50 5 50 10 0 6 -22 10 -50
10 -43 0 -50 3 -50 19 0 11 8 22 18 24 9 3 4 5 -13 6 l-30 1 3 -120 c3 -82 0
-120 -7 -120 -6 0 -11 -4 -11 -10 0 -6 68 -10 185 -10 l185 0 0 -425 0 -425
-310 0 -310 0 0 35 c0 24 -5 35 -15 35 -13 0 -15 50 -15 390 l0 390 60 0 c33
0 60 4 60 10 0 11 -2 11 -70 14 l-45 1 -3 118 c-2 75 1 117 8 117 6 0 10 30
10 76 l0 75 48 -3 47 -3 2 -58 c2 -82 13 -85 13 -4 l0 67 85 -1 c78 -2 85 -4
80 -21 -7 -20 -7 -20 87 -22 32 0 58 2 58 7 0 4 -27 7 -60 7 l-60 0 0 49 0 49
105 0 105 0 1 -27z m1307 16 c8 -6 12 -6 12 2 0 6 16 11 35 11 35 0 35 0 35
-44 0 -25 5 -48 12 -52 7 -4 34 -6 60 -5 l48 2 0 -86 0 -87 -50 4 c-35 2 -50
-1 -50 -9 0 -9 17 -13 50 -13 l50 0 0 -85 0 -85 -165 0 -165 0 0 85 0 85 50 0
c28 0 50 5 50 10 0 6 -22 10 -50 10 -43 0 -50 3 -50 20 0 12 7 20 18 20 10 0
13 3 6 8 -6 4 -14 14 -17 22 -4 12 -6 11 -6 -2 -1 -10 -7 -18 -13 -18 -10 0
-12 -27 -10 -111 3 -71 0 -115 -7 -122 -6 -6 -11 -15 -11 -19 0 -4 83 -8 185
-8 l185 0 0 -425 0 -425 -282 2 -283 3 -3 33 c-3 30 -6 32 -43 32 l-39 0 0
390 0 390 55 0 c55 0 80 19 28 21 -16 1 -39 2 -53 2 l-25 2 -3 122 -3 122 27
3 c27 3 27 5 28 68 1 63 2 65 29 68 l27 3 0 -65 c0 -37 4 -66 10 -66 6 0 10
28 10 65 l0 65 85 -1 c78 -2 85 -4 80 -21 -4 -11 -1 -18 7 -19 69 -4 138 -3
138 4 0 4 -27 7 -60 7 l-60 0 0 50 0 51 58 -2 c31 -1 63 -6 70 -12z m572 -38
l0 -49 -60 0 c-33 0 -60 -3 -60 -7 0 -7 71 -8 138 -4 8 1 11 8 7 20 -5 17 0
19 82 17 l88 -1 4 -65 5 -65 5 65 6 65 43 3 c46 3 43 9 47 -83 1 -27 5 -57 9
-66 4 -8 5 -64 4 -125 l-3 -109 -49 0 c-30 -1 -51 -6 -54 -13 -2 -8 13 -12 52
-12 l56 0 0 -390 c0 -340 -2 -390 -15 -390 -10 0 -15 -11 -15 -35 l0 -35 -310
0 -310 0 0 425 0 425 185 0 c102 0 185 4 185 8 0 4 -5 13 -11 19 -7 7 -10 51
-7 122 l3 111 -30 -1 c-17 -1 -22 -3 -12 -6 9 -2 17 -13 17 -24 0 -16 -7 -19
-50 -19 -27 0 -50 -4 -50 -10 0 -5 23 -10 50 -10 l50 0 0 -85 0 -85 -165 0
-165 0 0 85 0 85 50 0 c28 0 50 5 50 10 0 6 -22 10 -50 10 l-50 0 0 85 0 84
58 3 57 3 3 46 3 47 105 0 104 0 0 -49z m892 2 l3 -46 58 -3 57 -3 0 -84 0
-85 -50 0 c-27 0 -50 -4 -50 -10 0 -5 23 -10 50 -10 l50 0 0 -85 0 -85 -165 0
-165 0 0 85 0 85 50 0 c28 0 50 5 50 10 0 6 -22 10 -50 10 -43 0 -50 3 -50 20
0 12 7 20 18 20 13 0 14 2 3 9 -7 5 -21 7 -30 4 -14 -3 -16 -20 -13 -123 2
-80 0 -120 -7 -120 -6 0 -11 -4 -11 -10 0 -6 68 -10 185 -10 l185 0 0 -425 0
-425 -310 0 -310 0 0 35 c0 24 -5 35 -15 35 -13 0 -15 50 -15 390 l0 390 55 0
c30 0 55 5 55 10 0 11 -4 11 -65 14 l-40 1 -3 114 c-2 69 1 118 8 125 5 5 10
41 10 79 l0 68 43 -3 42 -3 3 -62 c4 -82 17 -82 17 -1 l0 63 88 1 c71 1 87 -1
83 -12 -3 -7 -1 -16 5 -20 15 -9 139 -10 139 -1 0 4 -27 7 -60 7 l-60 0 0 49
0 49 104 0 105 0 3 -47z m-7342 19 c-29 -25 -83 -23 -88 3 -3 14 5 17 54 17
l57 0 -23 -20z m158 3 c-4 -22 -78 -30 -78 -8 0 7 -6 16 -12 18 -7 3 11 6 40
6 45 1 53 -2 50 -16z m107 -183 l0 -195 -47 -3 -48 -3 0 201 0 201 48 -3 47
-3 0 -195z m8344 191 c24 -15 5 -26 -45 -26 -38 0 -49 4 -52 18 -3 14 4 17 40
17 24 0 49 -4 57 -9z m139 -8 c-4 -20 -82 -31 -93 -14 -3 6 -1 11 5 11 6 0 8
5 5 10 -4 6 12 10 40 10 39 0 46 -3 43 -17z m42 2 c0 -8 5 -15 10 -15 6 0 10
7 10 16 0 8 4 12 10 9 6 -4 9 -88 7 -218 l-2 -212 -26 -3 -26 -3 -6 211 c-4
117 -4 216 -1 221 8 14 24 10 24 -6z m-8402 -12 c-2 -14 -15 -19 -56 -21 -47
-3 -52 -1 -52 17 0 19 6 21 56 21 47 0 55 -3 52 -17z m132 -3 c0 -17 -7 -20
-43 -20 -40 0 -67 13 -67 32 0 4 25 8 55 8 48 0 55 -2 55 -20z m8430 10 c0
-15 -36 -30 -74 -30 -29 0 -36 4 -36 20 0 18 7 20 55 20 30 0 55 -4 55 -10z
m128 -7 c-6 -31 -98 -29 -98 2 0 11 13 15 51 15 43 0 50 -3 47 -17z m-9058
-38 c0 -12 -13 -15 -55 -15 -42 0 -55 3 -55 15 0 12 13 15 55 15 42 0 55 -3
55 -15z m140 0 c0 -11 -12 -15 -46 -15 -25 0 -43 4 -39 9 3 5 -3 12 -12 14
-10 3 8 5 40 6 44 1 57 -2 57 -14z m8460 0 c0 -12 -13 -15 -55 -15 -42 0 -55
3 -55 15 0 12 13 15 55 15 42 0 55 -3 55 -15z m130 0 c0 -12 -13 -15 -57 -14
-32 1 -49 4 -39 6 15 4 16 7 5 14 -9 6 4 9 39 9 40 0 52 -4 52 -15z m-8373 -2
c-10 -3 -16 -11 -14 -18 4 -9 -7 -13 -39 -13 -37 -1 -44 2 -44 18 0 18 7 20
58 19 31 -1 49 -3 39 -6z m143 -13 c0 -17 -7 -20 -45 -20 -32 0 -45 4 -45 14
0 8 -6 17 -12 19 -7 3 13 6 45 6 51 1 57 -1 57 -19z m1979 -50 l5 -65 5 65 6
65 45 0 45 0 8 -105 c4 -58 6 -143 5 -190 l-3 -85 -49 -1 c-72 -1 -73 -24 -2
-24 l56 0 0 -390 c0 -340 -2 -390 -15 -390 -10 0 -15 -11 -15 -35 l0 -35 -310
0 -310 0 0 425 0 425 185 0 c102 0 185 4 185 8 0 4 -5 13 -11 19 -7 7 -10 51
-7 122 1 61 0 111 -4 111 -5 0 -8 25 -8 55 0 32 4 55 11 55 6 0 8 8 4 19 -5
17 0 19 82 17 l88 -1 4 -65z m271 5 c0 -36 3 -65 8 -65 4 0 7 28 7 62 l0 63
88 1 c79 2 87 0 87 -17 0 -11 5 -19 10 -19 6 0 10 -25 10 -55 0 -30 -4 -55
-10 -55 -6 0 -10 -45 -10 -114 0 -66 -4 -117 -10 -121 -32 -20 6 -25 175 -25
l185 0 0 -425 0 -425 -310 0 -310 0 0 35 c0 24 -5 35 -15 35 -13 0 -15 50 -15
390 l0 390 55 0 c55 0 80 19 28 21 -86 3 -78 -9 -81 118 -2 69 1 118 8 125 5
5 10 41 10 78 l0 68 45 0 45 0 0 -65z m5111 53 c0 -10 2 -10 6 0 3 8 26 12 64
12 l59 0 2 -67 2 -68 3 60 c4 64 12 75 56 75 27 0 27 0 27 -70 0 -52 4 -71 15
-78 13 -7 15 -28 13 -123 l-3 -114 -49 0 c-30 -1 -51 -6 -54 -13 -2 -8 13 -12
52 -12 l56 0 0 -389 0 -390 -22 -3 c-18 -2 -24 -11 -26 -35 l-3 -33 -290 0
-289 0 0 425 0 425 185 0 c102 0 185 4 185 8 0 4 -5 13 -11 19 -7 7 -10 51 -7
122 1 61 0 111 -4 111 -5 0 -8 25 -8 55 0 32 4 55 11 55 6 0 8 9 4 20 -5 14
-2 20 9 20 9 0 16 -6 17 -12z m1064 -8 c0 -11 -14 -16 -52 -18 -48 -3 -53 -2
-53 18 0 19 5 21 53 18 38 -2 52 -7 52 -18z m133 3 c-3 -20 -45 -29 -84 -19
-15 4 -21 11 -18 21 4 11 21 15 56 15 42 0 49 -3 46 -17z m-9048 -33 c0 -6
-27 -10 -60 -10 -33 0 -60 4 -60 10 0 6 27 10 60 10 33 0 60 -4 60 -10z m130
0 c0 -12 -67 -12 -95 0 -14 6 -4 9 38 9 32 1 57 -3 57 -9z m8460 -5 c0 -12
-13 -15 -55 -15 -42 0 -55 3 -55 15 0 12 13 15 55 15 42 0 55 -3 55 -15z m130
0 c0 -11 -12 -15 -48 -15 -37 0 -49 4 -49 15 0 11 12 15 49 15 36 0 48 -4 48
-15z m-8230 -15 c0 -20 -5 -21 -120 -19 -111 1 -120 3 -120 20 0 18 9 19 120
19 114 0 120 -1 120 -20z m8558 3 c-3 -16 -18 -18 -121 -21 -112 -3 -117 -2
-117 18 0 19 6 20 121 20 109 0 120 -2 117 -17z m-9051 -34 c-5 -18 -2 -20 18
-15 13 3 30 9 39 12 25 9 19 -12 -6 -24 -13 -6 -17 -11 -10 -11 6 -1 12 -12
12 -26 0 -29 -15 -34 -23 -7 -4 19 -47 38 -47 21 0 -5 5 -9 11 -9 5 0 8 -4 4
-10 -9 -14 -35 0 -35 20 0 10 -7 21 -16 24 -8 3 -12 11 -9 17 4 6 13 8 20 5 8
-3 19 2 25 10 17 20 23 18 17 -7z m10118 1 c0 -10 -12 -16 -36 -18 -29 -2 -37
1 -41 16 -5 17 0 19 36 18 29 -1 41 -5 41 -16z m-1525 0 c0 -5 -25 -10 -55
-10 -30 0 -55 5 -55 10 0 6 25 10 55 10 30 0 55 -4 55 -10z m130 0 c0 -5 -20
-10 -44 -10 -25 0 -48 5 -51 10 -4 6 13 10 44 10 28 0 51 -4 51 -10z m-8230
-15 c0 -12 -20 -15 -120 -15 -100 0 -120 3 -120 15 0 13 20 15 120 15 100 0
120 -2 120 -15z m8560 0 c0 -12 -20 -15 -120 -15 -100 0 -120 3 -120 15 0 13
20 15 120 15 100 0 120 -2 120 -15z m-8923 -11 c4 -10 0 -22 -8 -28 -14 -10
-34 -49 -27 -52 2 -1 -5 -11 -15 -21 -9 -11 -14 -23 -11 -26 4 -4 -1 -9 -10
-13 -9 -3 -16 -12 -16 -20 0 -8 -4 -14 -10 -14 -5 0 -10 14 -10 30 0 17 4 30
8 30 5 0 14 16 22 35 8 19 16 35 19 35 4 0 12 14 19 30 15 33 29 38 39 14z
m8479 -44 c3 0 18 7 34 15 38 19 50 1 13 -19 -15 -8 -22 -15 -15 -16 14 0 17
-50 2 -50 -5 0 -10 8 -10 19 0 12 -9 20 -25 23 -20 4 -23 3 -14 -8 9 -11 8
-14 -6 -14 -9 0 -19 9 -22 20 -3 11 -9 20 -14 20 -5 0 -9 7 -9 15 0 8 9 15 20
15 11 0 24 8 28 18 6 13 8 11 10 -10 2 -16 6 -28 8 -28z m1501 6 c-5 -14 -87
-20 -87 -7 0 17 29 28 61 23 16 -2 28 -9 26 -16z m-9617 -1 c0 -12 -20 -15
-120 -15 -100 0 -120 3 -120 15 0 13 20 15 120 15 100 0 120 -2 120 -15z
m8560 0 c0 -12 -20 -15 -120 -15 -100 0 -120 3 -120 15 0 13 20 15 120 15 100
0 120 -2 120 -15z m-320 -10 c0 -14 -18 -53 -30 -65 -3 -3 -12 -18 -20 -35 -8
-16 -21 -34 -27 -38 -7 -4 -13 -15 -13 -22 0 -8 -4 -15 -10 -15 -5 0 -10 10
-10 23 0 26 21 77 33 77 4 0 7 7 7 15 0 8 5 15 10 15 6 0 10 7 10 15 0 20 21
44 38 45 6 0 12 -7 12 -15z m-8240 -40 c0 -12 -20 -15 -120 -15 -100 0 -120 3
-120 15 0 13 20 15 120 15 100 0 120 -2 120 -15z m8560 0 c0 -12 -20 -15 -120
-15 -100 0 -120 3 -120 15 0 13 20 15 120 15 100 0 120 -2 120 -15z m-845 -5
c-7 -11 -55 -9 -55 2 0 4 14 8 31 8 17 0 28 -4 24 -10z m-8209 -63 c-6 -26
-38 -46 -44 -28 -2 6 -9 11 -16 11 -7 0 -21 9 -30 19 -17 18 -16 20 5 26 13 4
30 14 38 22 21 22 56 -15 47 -50z m8212 26 c-2 -13 -13 -18 -36 -18 -19 -1
-36 3 -38 7 -3 4 4 8 15 8 12 0 21 5 21 10 0 6 9 10 21 10 14 0 19 -5 17 -17z
m-7718 -8 c0 -12 -20 -15 -120 -15 -100 0 -120 3 -120 15 0 13 20 15 120 15
100 0 120 -2 120 -15z m8560 0 c0 -12 -20 -15 -120 -15 -100 0 -120 3 -120 15
0 13 20 15 120 15 100 0 120 -2 120 -15z m-467 -22 c27 -22 28 -43 4 -65 -16
-14 -21 -14 -46 -2 -16 8 -34 21 -41 29 -10 12 -7 15 13 20 14 4 28 13 31 21
7 18 13 18 39 -3z m-8093 -28 c0 -12 -20 -15 -120 -15 -100 0 -120 3 -120 15
0 13 20 15 120 15 100 0 120 -2 120 -15z m8560 0 c0 -12 -20 -15 -120 -15
-100 0 -120 3 -120 15 0 13 20 15 120 15 100 0 120 -2 120 -15z m-9040 -32
c31 -16 40 -16 40 0 0 9 12 11 40 9 22 -2 40 -9 40 -14 0 -6 25 -8 63 -5 123
10 306 13 301 5 -3 -4 -14 -8 -24 -8 -11 0 -35 -13 -53 -30 -34 -29 -38 -30
-136 -30 -83 0 -101 3 -101 15 0 8 -4 15 -9 15 -5 0 -14 -7 -21 -15 -8 -10
-31 -15 -66 -15 -54 0 -59 3 -55 43 2 15 -7 17 -74 17 l-77 0 4 -62 3 -63 68
-3 c49 -2 67 1 68 10 4 40 1 38 68 38 32 0 55 -6 65 -16 15 -14 20 -11 17 9 0
4 47 7 105 7 93 0 105 -2 100 -16 -3 -9 -6 -22 -6 -30 0 -12 -41 -14 -250 -14
l-250 0 0 78 c0 43 3 82 7 85 11 12 105 5 133 -10z m9048 -15 c21 -14 23 -22
20 -89 -3 -72 -3 -73 -34 -81 -16 -4 -41 -19 -54 -33 -22 -23 -30 -25 -117
-25 -80 0 -93 2 -93 17 0 15 -1 15 -18 0 -13 -12 -37 -17 -85 -17 l-67 0 0 35
c0 24 5 35 15 35 8 0 15 4 15 9 0 5 -7 14 -15 21 -19 15 -19 69 -1 93 13 16
24 17 100 11 83 -6 86 -6 86 14 0 20 6 21 83 24 127 5 141 3 165 -14z m-9048
-18 c0 -5 -9 -14 -20 -20 -11 -6 -20 -7 -20 -2 0 5 -11 7 -25 4 -24 -4 -33 7
-18 21 10 11 83 8 83 -3z m490 -15 c0 -23 -4 -25 -45 -25 -25 0 -45 2 -45 5 0
8 64 45 78 45 6 0 12 -11 12 -25z m8043 15 l47 0 0 -47 c0 -29 -6 -53 -16 -65
-16 -16 -16 -18 0 -24 10 -4 16 -18 16 -40 0 -41 -16 -44 -49 -9 -12 14 -37
29 -55 33 l-31 8 -3 78 c-3 78 -3 78 20 72 13 -3 44 -6 71 -6z m-8544 -64 c16
-19 4 -24 -41 -19 -24 3 -38 11 -38 19 0 19 64 19 79 0z m501 -16 c0 -18 -7
-20 -55 -20 -48 0 -55 2 -55 20 0 18 7 20 55 20 48 0 55 -2 55 -20z m10930
-375 l0 -355 -85 0 c-78 0 -85 -2 -85 -20 0 -20 -7 -20 -320 -20 l-320 0 0
180 0 180 -130 0 c-80 0 -130 -4 -130 -10 0 -5 -24 -10 -54 -10 -30 0 -58 5
-61 10 -3 6 -22 10 -42 10 l-36 0 7 53 c3 28 6 73 6 100 l0 47 59 0 c38 0 61
-4 64 -12 3 -8 6 -6 6 5 1 14 -8 17 -58 17 -36 0 -63 5 -69 13 -7 8 -9 39 -5
85 l6 72 203 0 204 0 0 -55 c0 -42 3 -55 15 -55 12 0 15 13 15 60 l0 60 405 0
405 0 0 -355z m-10920 285 c0 -6 -28 -10 -65 -10 -36 0 -65 -3 -65 -7 0 -5 29
-6 65 -5 l65 4 0 -61 c0 -51 -3 -61 -17 -62 -13 0 -12 -3 5 -10 13 -5 22 -15
20 -21 -4 -10 -74 -13 -309 -13 l-304 0 -3 50 c-2 30 -9 53 -18 58 -8 5 -14
24 -14 47 l0 40 320 0 c207 0 320 -4 320 -10z m7998 -10 c17 -11 32 -21 32
-24 0 -2 -20 -4 -45 -4 -37 -1 -45 2 -45 17 0 36 13 38 58 11z m570 -8 c3 -20
-1 -22 -42 -22 -25 0 -46 2 -46 5 0 9 65 45 75 42 6 -2 11 -13 13 -25z m-516
-55 c15 -23 7 -27 -52 -27 -52 0 -60 3 -60 18 0 16 8 19 53 19 29 1 55 -4 59
-10z m190 -4 c16 -15 21 -15 28 -3 6 10 34 15 90 18 l82 4 -4 -34 -3 -33 68
-3 c64 -3 67 -4 67 -27 l0 -25 -315 0 -315 0 0 25 c0 23 3 24 68 27 l67 3 -3
33 -2 32 77 0 c58 0 81 -4 95 -17z m326 -5 c3 -16 -5 -18 -57 -18 -34 0 -61 2
-61 4 0 2 3 12 6 21 9 24 107 17 112 -7z m1125 -264 l37 -7 2 -61 2 -61 3 62
4 61 74 4 75 3 0 -47 c0 -35 4 -48 14 -48 11 0 16 14 18 48 l3 47 75 0 75 0 3
-162 2 -163 -80 0 -80 0 0 45 c0 33 -4 45 -15 45 -11 0 -15 -12 -15 -50 l0
-51 -57 3 c-31 2 -58 8 -60 14 -2 7 8 10 30 8 41 -5 67 18 50 44 -16 26 -66
22 -78 -5 -5 -13 -17 -23 -27 -23 -13 0 -18 11 -20 48 l-3 47 -67 3 -68 3 0
35 c0 19 4 33 8 30 5 -3 4 19 -1 48 -16 86 -4 96 96 80z m-9288 -44 c3 -5 3
-15 -1 -22 -5 -8 -10 -6 -15 8 -7 17 -8 18 -8 1 -1 -24 -44 -19 -49 6 -3 13 4
17 32 17 19 0 38 -4 41 -10z m-2 -71 c-5 -19 -83 -21 -83 -2 0 12 18 18 60 18
20 0 26 -4 23 -16z m9303 -113 c3 -13 4 -35 1 -47 -4 -21 -4 -20 -6 5 -1 26
-3 28 -13 14 -14 -17 -69 -38 -99 -38 -15 0 -19 8 -19 35 0 34 1 35 41 35 24
0 38 4 34 10 -4 6 6 10 24 10 24 0 32 -5 37 -24z m-9071 -71 c0 -80 0 -80 -27
-83 -56 -7 -26 -22 41 -22 l70 0 0 -85 0 -85 -49 0 -49 0 -3 -42 c-2 -36 -7
-44 -25 -46 -13 -2 -23 1 -23 6 0 5 -13 12 -29 14 -22 3 -28 1 -24 -10 4 -10
-3 -13 -28 -10 -31 3 -34 6 -37 37 -2 19 -1 44 2 57 6 22 11 24 71 24 36 0 65
3 65 8 0 4 -29 6 -63 4 l-64 -4 -6 108 c-4 59 -7 131 -7 161 l0 54 93 -3 92
-3 0 -80z m85 45 c0 -22 -4 -40 -10 -40 -5 0 -10 -20 -10 -45 0 -38 -3 -45
-20 -45 -18 0 -20 7 -20 85 l0 85 30 0 c28 0 30 -2 30 -40z m9120 -4 c0 -2 3
-11 6 -19 4 -12 -3 -15 -30 -15 -34 0 -47 14 -29 31 7 8 53 10 53 3z m-1060
-137 c0 -77 23 -78 28 -1 l3 51 122 3 c163 4 167 3 167 -33 0 -28 2 -29 44
-29 39 0 44 -3 49 -27 9 -46 0 -53 -72 -55 l-66 -2 66 -3 66 -4 7 -124 c7
-124 4 -151 -16 -139 -17 11 -28 -18 -28 -78 0 -45 -3 -57 -17 -61 -14 -4 -12
-5 5 -6 20 -1 22 3 22 59 l0 60 55 0 55 0 0 -104 0 -105 -52 -3 -53 -3 -3 -57
-3 -58 -79 0 -80 0 0 51 c0 66 -24 62 -28 -4 l-3 -47 -80 0 -79 0 0 165 0 165
79 0 80 0 3 -47 c4 -61 22 -62 26 -2 l3 47 61 1 c33 0 63 3 66 6 3 3 -15 5
-41 5 -25 0 -47 3 -49 8 -1 4 -60 6 -130 4 l-128 -3 0 -175 0 -174 -420 0
-419 0 -3 63 c-2 34 -2 194 0 355 l3 292 29 0 c26 0 30 4 30 28 0 16 3 32 7
35 3 4 179 7 390 7 l383 0 0 -61z m1110 -24 c0 -33 4 -45 15 -45 11 0 15 12
15 45 l0 45 80 0 80 0 0 -165 0 -166 -77 3 -78 3 -3 48 c-2 33 -7 47 -18 47
-10 0 -14 -13 -14 -51 0 -43 -3 -50 -16 -45 -9 3 -42 6 -75 6 l-59 0 -2 58 -2
57 -3 -55 c-3 -30 -10 -58 -16 -62 -7 -4 -38 -8 -69 -8 l-58 0 0 33 c0 17 4
47 9 65 6 20 6 32 0 32 -5 0 -9 16 -9 35 l0 35 70 0 70 0 0 49 0 49 60 0 c50
-1 60 -4 58 -17 -4 -21 -44 -26 -65 -9 -14 11 -15 11 -12 -1 9 -26 46 -32 71
-11 33 27 14 56 -36 53 -20 -1 -36 3 -36 8 0 5 27 9 60 9 l60 0 0 -45z m860
30 c0 -12 16 -15 85 -15 l85 0 0 -355 0 -355 -405 0 -404 0 -3 55 c-2 30 -7
55 -13 55 -5 0 -11 -25 -13 -55 l-3 -55 -203 0 -203 0 -6 76 c-4 42 -4 80 -1
85 3 5 34 9 70 9 60 0 64 1 63 23 -1 16 -2 18 -6 5 -4 -15 -16 -18 -64 -18
l-59 0 0 60 c0 55 2 60 23 61 21 1 21 1 -3 8 -20 5 -26 14 -28 44 -3 36 -2 37
32 37 19 0 38 5 41 10 3 6 31 10 61 10 30 0 54 -4 54 -10 0 -6 50 -10 130 -10
l130 0 0 175 0 175 320 0 c278 0 320 -2 320 -15z m-1040 -44 c0 -16 -3 -36 -6
-45 -7 -17 -54 -22 -54 -6 0 6 11 10 25 10 21 0 25 5 25 28 -1 23 -2 24 -11
10 -9 -17 -66 -38 -101 -38 -13 0 -18 8 -18 28 0 16 3 32 7 35 3 4 35 7 70 7
63 0 63 0 63 -29z m-8992 -198 c-3 -25 -7 -28 -38 -28 -31 0 -35 3 -38 28 -3
26 -1 27 38 27 39 0 41 -1 38 -27z m-643 -76 c4 -13 5 -43 3 -68 -3 -43 -4
-44 -38 -44 l-35 0 -3 68 -3 67 35 0 c29 0 37 -4 41 -23z m9290 -107 c-3 -5
-17 -10 -31 -10 -13 0 -24 5 -24 10 0 6 14 10 31 10 17 0 28 -4 24 -10z m5
-40 c0 -16 -6 -19 -35 -18 -38 1 -61 18 -26 18 12 0 21 5 21 10 0 6 9 10 20
10 13 0 20 -7 20 -20z m-9179 -27 c1 -17 2 -17 6 0 4 14 16 17 65 17 l60 0 -4
-65 c-1 -36 0 -65 5 -65 4 0 7 29 7 65 0 37 4 65 10 65 6 0 10 -7 10 -15 0
-10 10 -15 29 -15 38 0 38 1 36 -329 -1 -199 -5 -276 -13 -279 -7 -2 -12 -12
-12 -23 0 -17 -8 -19 -65 -19 -55 0 -65 3 -65 18 0 16 -27 17 -449 14 l-448
-2 -7 159 c-4 88 -4 228 0 310 l7 151 33 0 c24 0 34 5 34 15 0 13 49 15 380
15 355 0 380 -1 381 -17z m9059 -132 c0 -5 10 -11 23 -13 21 -3 22 -8 25 -104
2 -76 -1 -103 -10 -107 -10 -3 -13 14 -11 77 1 67 0 74 -7 41 -5 -22 -9 -54
-9 -71 -1 -26 -6 -33 -28 -40 -21 -5 -24 -8 -10 -11 23 -6 22 -23 -2 -23 -27
0 -31 18 -31 146 l0 114 30 0 c17 0 30 -4 30 -9z m-470 -315 l0 -175 129 -3
c117 -3 130 -1 141 15 10 17 9 18 -19 12 l-31 -7 0 52 c0 67 -24 64 -28 -3
l-3 -47 -80 0 -79 0 0 165 0 165 84 0 84 0 -2 -46 c-1 -30 4 -49 12 -51 8 -3
12 10 12 46 l0 51 80 0 80 0 0 -44 c0 -69 5 -76 61 -76 l49 0 0 -39 c0 -44 -9
-51 -57 -43 -32 4 -33 3 -33 -28 0 -31 1 -32 33 -28 47 8 57 1 57 -38 l0 -35
-52 3 -53 3 -5 60 -6 60 -4 -62 c-5 -68 4 -91 34 -85 17 4 18 0 12 -43 -3 -26
-6 -72 -6 -101 l0 -54 -67 -1 c-38 -1 -58 -4 -45 -6 22 -4 23 -8 20 -91 l-3
-87 -142 -3 -142 -3 -3 58 c-4 75 -22 75 -26 0 l-3 -57 -387 2 -387 3 -3 78
-3 77 -29 0 -30 0 0 290 0 290 420 0 420 0 0 -174z m1300 119 c0 -42 3 -55 15
-55 12 0 15 13 15 55 l0 55 405 0 405 0 0 -285 0 -285 -30 0 -30 0 0 -85 0
-85 -375 0 -375 0 0 185 c0 102 -4 185 -8 185 -4 0 -13 -5 -19 -11 -6 -6 -52
-9 -122 -7 -61 2 -111 2 -111 1 0 -1 -3 -9 -6 -18 -5 -13 -2 -15 19 -10 25 7
26 5 29 -41 4 -67 28 -72 28 -5 l0 51 80 0 80 0 0 -165 0 -165 -80 0 -80 0 0
50 c0 38 -4 50 -15 50 -11 0 -15 -12 -15 -50 l0 -50 -80 0 -80 0 0 85 0 85
-70 0 c-64 0 -70 2 -70 21 0 11 4 18 9 15 4 -3 6 6 3 21 -3 18 -1 24 7 19 6
-4 11 -16 11 -27 0 -14 7 -19 30 -19 17 0 30 5 30 11 0 6 -8 8 -18 5 -13 -4
-18 -1 -18 14 0 23 7 25 25 7 11 -10 13 -9 9 3 -3 8 -18 16 -34 16 -16 1 -35
2 -41 3 -8 0 -13 15 -13 36 0 21 5 36 13 36 24 3 112 -3 119 -7 5 -3 9 -31 10
-62 l1 -57 6 60 c7 73 -1 90 -42 90 -28 0 -32 4 -35 30 -3 19 2 33 14 42 10 7
12 13 6 13 -8 0 -12 20 -12 60 l0 60 59 0 c48 0 60 -3 64 -17 4 -14 5 -13 6 4
1 20 -4 22 -66 25 l-68 3 0 82 0 83 208 0 207 0 0 -55z m-864 -175 c0 -11 -4
-20 -8 -20 -11 0 -20 19 -13 30 10 16 21 11 21 -10z m44 -2 c0 -16 -3 -19 -11
-11 -6 6 -8 16 -5 22 11 17 16 13 16 -11z m345 -68 c9 -15 6 -17 -36 -25 -30
-6 -37 -4 -41 12 -4 16 1 20 33 21 20 2 40 -2 44 -8z m-18 -60 c8 0 13 -6 11
-12 -5 -14 -88 -21 -88 -7 0 12 33 29 48 24 8 -3 20 -5 29 -5z m-10267 -85 c0
-43 -1 -45 -30 -45 -28 0 -30 3 -30 36 0 27 4 35 14 31 8 -3 17 1 20 9 11 29
26 12 26 -31z m114 29 c4 -9 1 -23 -5 -31 -13 -15 -7 -26 16 -29 11 -2 15 8
15 36 l0 38 85 0 85 0 0 -42 c0 -22 -4 -46 -8 -53 -4 -6 -32 -13 -62 -16 l-55
-3 56 -2 57 -2 4 -72 c3 -45 1 -79 -6 -87 -8 -11 -8 -15 2 -18 6 -3 12 -17 12
-33 0 -16 -6 -30 -12 -33 -10 -4 -10 -7 0 -18 8 -9 12 -51 12 -136 l0 -123
-135 0 -135 0 0 130 0 130 50 0 c28 0 50 5 50 10 0 6 -4 10 -10 10 -5 0 -10
18 -10 40 0 22 5 40 10 40 6 0 10 5 10 10 0 6 -22 10 -50 10 l-50 0 0 88 c0
57 4 93 13 101 10 11 10 14 0 18 -7 3 -13 16 -13 29 0 21 5 24 34 24 22 0 36
-6 40 -16z m946 -50 c0 -84 20 -76 21 9 1 51 3 56 8 27 4 -19 6 -47 6 -62 -1
-16 -2 -59 -3 -98 l-2 -70 -40 0 -40 0 0 -60 0 -60 40 0 40 0 0 -130 0 -130
-380 0 -380 0 0 155 0 155 55 0 c30 0 55 5 55 10 0 6 -25 10 -55 10 l-55 0 0
39 c0 22 -4 43 -10 46 -5 3 -10 31 -10 61 0 30 5 54 10 54 6 0 10 25 10 55 l0
55 365 0 365 0 0 -66z m-1060 -109 c0 -43 -1 -45 -30 -45 -28 0 -30 3 -30 36
0 28 3 35 15 30 9 -3 15 0 15 9 0 8 7 15 15 15 11 0 15 -12 15 -45z m10373
-22 c-7 -2 -19 -2 -25 0 -7 3 -2 5 12 5 14 0 19 -2 13 -5z m-4 -50 c15 -53 14
-63 -9 -63 -17 0 -20 7 -20 50 0 59 15 65 29 13z"/>
<path d="M2002 3484 c-41 -29 -23 -84 28 -84 32 0 50 17 50 46 0 20 -32 54
-50 54 -3 0 -16 -7 -28 -16z m45 -39 c-7 -14 -14 -25 -17 -25 -3 0 -10 11 -17
25 -10 23 -9 25 17 25 26 0 27 -2 17 -25z"/>
<path d="M2566 3490 c-25 -9 -36 -39 -23 -67 15 -34 70 -32 85 3 21 44 -15 81
-62 64z m40 -36 c-9 -8 -14 -20 -11 -25 4 -5 -1 -9 -9 -9 -10 0 -13 6 -10 15
4 8 1 15 -5 15 -6 0 -11 5 -11 10 0 6 14 10 31 10 28 0 29 -1 15 -16z"/>
<path d="M3060 3450 l0 -50 70 0 70 0 0 50 0 50 -70 0 -70 0 0 -50z m70 25
c-10 -13 -9 -15 9 -15 11 0 21 -4 21 -10 0 -5 -10 -10 -21 -10 -18 0 -19 -2
-9 -15 20 -24 -23 -19 -45 5 -17 19 -17 20 6 39 30 25 58 29 39 6z"/>
<path d="M3270 3450 c0 -27 5 -50 10 -50 6 0 10 23 10 50 0 28 -4 50 -10 50
-5 0 -10 -22 -10 -50z"/>
<path d="M3371 3483 c-23 -16 -28 -52 -9 -71 21 -21 67 -15 79 12 22 47 -28
89 -70 59z m45 -28 c-10 -7 -15 -18 -11 -24 3 -6 -1 -11 -11 -11 -10 0 -14 3
-11 6 3 4 2 15 -4 25 -9 17 -6 19 23 19 30 -1 32 -2 14 -15z"/>
<path d="M3920 3480 c-23 -23 -25 -39 -7 -64 17 -24 65 -18 84 11 14 20 13 24
-11 48 -30 30 -40 31 -66 5z m50 -25 c-6 -8 -9 -19 -5 -25 3 -5 0 -10 -7 -10
-7 0 -18 11 -25 25 -11 24 -10 25 19 25 26 0 28 -2 18 -15z"/>
<path d="M4681 3481 c-24 -24 -26 -39 -7 -63 33 -44 106 -2 84 48 -6 13 -15
24 -19 24 -4 0 -14 3 -22 6 -9 3 -25 -4 -36 -15z m55 -27 c-9 -8 -14 -20 -11
-25 4 -5 -1 -9 -10 -9 -9 0 -14 4 -10 9 3 5 -2 17 -11 25 -14 15 -12 16 21 16
33 0 35 -1 21 -16z"/>
<path d="M4990 3450 l0 -50 75 0 75 0 0 50 0 50 -75 0 -75 0 0 -50z m76 25
c-3 -9 0 -15 9 -15 8 0 15 -4 15 -10 0 -5 -7 -10 -15 -10 -9 0 -12 -6 -9 -15
9 -22 -20 -19 -41 5 -17 19 -17 21 0 40 21 24 50 27 41 5z"/>
<path d="M5204 3450 c1 -33 5 -50 13 -50 9 0 13 16 13 50 0 35 -4 50 -13 50
-10 0 -14 -14 -13 -50z"/>
<path d="M5250 3450 c0 -68 24 -68 28 0 2 40 0 50 -12 50 -12 0 -16 -11 -16
-50z"/>
<path d="M5910 3480 c-23 -23 -24 -33 -10 -61 12 -22 59 -26 78 -7 19 19 14
55 -10 72 -29 20 -34 20 -58 -4z m54 -25 c-4 -8 -10 -12 -15 -9 -5 3 -6 -2 -3
-10 10 -26 -10 -18 -23 9 -10 24 -9 25 18 25 21 0 27 -4 23 -15z"/>
<path d="M6601 3474 c-29 -37 -12 -74 36 -74 49 0 65 56 25 88 -24 18 -38 15
-61 -14z m56 -22 c-10 -10 -14 -22 -10 -25 3 -4 -1 -7 -11 -7 -10 0 -14 5 -11
11 4 6 -1 17 -11 24 -17 13 -16 14 20 15 37 0 38 -1 23 -18z"/>
<path d="M7291 3473 c-19 -23 -20 -29 -8 -47 19 -28 67 -33 84 -10 18 25 16
41 -7 64 -27 27 -44 25 -69 -7z m57 -14 c-10 -5 -15 -16 -12 -24 4 -10 0 -15
-11 -15 -9 0 -13 5 -10 10 4 6 1 17 -5 25 -11 13 -7 15 21 15 28 -1 31 -3 17
-11z"/>
<path d="M7520 3450 c0 -27 4 -50 8 -50 5 0 10 23 11 50 1 28 -3 50 -9 50 -5
0 -10 -22 -10 -50z"/>
<path d="M7610 3450 l0 -50 70 0 70 0 0 50 0 50 -70 0 -70 0 0 -50z m107 18
c21 -20 22 -23 6 -40 -21 -23 -62 -26 -43 -3 10 13 9 15 -9 15 -11 0 -21 5
-21 10 0 6 10 10 21 10 18 0 19 2 9 15 -20 24 10 19 37 -7z"/>
<path d="M8002 3484 c-41 -29 -23 -84 28 -84 32 0 50 17 50 46 0 20 -32 54
-50 54 -3 0 -16 -7 -28 -16z m47 -27 c-9 -7 -14 -18 -12 -24 8 -24 -12 -13
-24 12 -11 24 -10 25 20 25 27 -1 30 -2 16 -13z"/>
<path d="M8520 3480 c-23 -23 -25 -39 -7 -64 17 -24 65 -18 84 11 14 20 13 24
-11 48 -30 30 -40 31 -66 5z m47 -35 c-7 -14 -14 -25 -17 -25 -3 0 -10 11 -17
25 -10 23 -9 25 17 25 26 0 27 -2 17 -25z"/>
<path d="M2148 3463 c-14 -15 -15 -22 -6 -31 7 -7 16 -8 23 -2 6 5 40 11 75
13 l65 3 -67 2 c-52 2 -67 5 -70 18 -3 14 -5 14 -20 -3z"/>
<path d="M2811 3461 c-7 -13 -8 -22 -1 -26 18 -11 10 -25 -15 -25 -16 0 -25
-6 -25 -15 0 -13 7 -15 34 -10 20 4 36 2 41 -4 8 -14 25 -4 25 15 0 8 -9 14
-20 14 -11 0 -20 7 -20 15 0 12 16 15 73 17 l72 2 -65 3 c-44 3 -69 9 -77 19
-10 14 -13 13 -22 -5z"/>
<path d="M3220 3471 c0 -5 9 -19 20 -32 l21 -24 -16 33 c-15 31 -25 41 -25 23z"/>
<path d="M3477 3463 c-16 -19 -16 -21 3 -38 18 -16 20 -16 20 -2 0 13 14 17
73 20 l72 3 -72 2 c-57 2 -72 5 -75 18 -3 14 -5 14 -21 -3z"/>
<path d="M4808 3463 c-16 -18 -16 -19 2 -31 11 -7 20 -8 20 -3 0 6 33 12 73
14 l72 3 -72 2 c-57 2 -72 5 -75 18 -3 14 -5 14 -20 -3z"/>
<path d="M5690 3467 c0 -13 -14 -17 -72 -20 l-73 -3 72 -2 c57 -2 72 -5 75
-18 3 -14 5 -14 21 3 16 19 16 21 -3 38 -18 16 -20 16 -20 2z"/>
<path d="M6357 3466 c-4 -11 -25 -16 -74 -19 l-68 -3 73 -2 c49 -1 72 -6 72
-14 0 -8 6 -6 17 5 16 15 16 18 2 33 -15 14 -17 14 -22 0z"/>
<path d="M7577 3473 c-4 -3 -7 -13 -7 -22 1 -13 3 -13 11 2 11 19 8 33 -4 20z"/>
<path d="M8356 3465 c-3 -10 -26 -15 -73 -18 l-68 -3 73 -2 c49 -1 72 -6 72
-14 0 -8 6 -6 16 4 15 15 15 18 1 32 -13 13 -16 13 -21 1z"/>
<path d="M4141 3456 c-9 -10 -8 -16 3 -25 10 -8 16 -9 21 -1 3 5 36 11 73 12
l67 2 -65 3 c-35 2 -69 8 -76 14 -7 6 -15 5 -23 -5z"/>
<path d="M5160 3461 c0 -6 5 -13 10 -16 6 -3 10 1 10 9 0 9 -4 16 -10 16 -5 0
-10 -4 -10 -9z"/>
<path d="M5297 3443 c-5 -26 -4 -26 9 -8 16 22 18 35 5 35 -5 0 -11 -12 -14
-27z"/>
<path d="M7020 3460 c0 -5 -30 -11 -67 -12 l-68 -2 65 -3 c35 -2 69 -8 75 -13
17 -14 38 10 24 27 -13 15 -29 17 -29 3z"/>
<path d="M8850 3372 c0 -40 -4 -72 -10 -72 -5 0 -7 -7 -4 -15 8 -19 28 -19 43
-1 9 11 8 15 -4 20 -13 5 -16 19 -14 66 1 33 -1 63 -4 67 -4 3 -7 -26 -7 -65z"/>
<path d="M1646 3334 c-21 -21 -20 -47 2 -67 23 -21 46 -22 66 -1 31 30 9 84
-34 84 -10 0 -26 -7 -34 -16z m61 -16 c-2 -7 -9 -12 -15 -11 -5 1 -8 -7 -5
-17 3 -11 0 -20 -6 -20 -6 0 -11 9 -11 20 0 11 -4 20 -10 20 -5 0 -10 5 -10
10 0 6 14 10 31 10 20 0 29 -4 26 -12z"/>
<path d="M8828 3229 c-21 -12 -24 -59 -6 -77 19 -19 55 -14 72 10 20 29 20 34
-4 58 -22 22 -37 24 -62 9z m47 -32 c-10 -8 -15 -19 -11 -25 4 -7 1 -12 -9
-12 -9 0 -14 4 -10 9 3 5 -2 17 -11 25 -14 15 -12 16 22 16 34 0 36 -1 19 -13z"/>
<path d="M1670 3173 c2 -32 -1 -66 -5 -77 -10 -23 13 -40 33 -24 9 8 10 14 2
22 -5 5 -10 38 -10 73 0 38 -4 63 -11 63 -6 0 -10 -22 -9 -57z"/>
<path d="M8852 2853 c-2 -57 -5 -72 -18 -75 -14 -3 -14 -5 3 -21 19 -16 21
-16 38 3 16 18 16 20 2 20 -13 0 -17 14 -20 73 l-3 72 -2 -72z"/>
<path d="M1460 2800 l0 -50 73 0 72 0 -2 32 c-1 18 -2 41 -2 51 -1 14 -11 17
-71 17 l-70 0 0 -50z m74 25 c-4 -9 0 -15 10 -15 9 0 16 -4 16 -10 0 -5 -10
-10 -21 -10 -18 0 -19 -2 -9 -15 20 -24 -13 -19 -35 5 -17 19 -17 21 0 40 21
24 47 27 39 5z"/>
<path d="M1670 2801 c0 -38 4 -51 14 -51 11 0 14 12 13 47 -3 67 -27 70 -27 4z"/>
<path d="M1190 2816 c-11 -15 -11 -19 3 -34 11 -10 17 -12 17 -4 0 8 22 12 70
12 40 0 70 4 70 10 0 6 -30 10 -69 10 -42 0 -71 4 -73 11 -2 7 -9 5 -18 -5z"/>
<path d="M1630 2808 c0 -9 5 -20 10 -23 13 -8 13 5 0 25 -8 13 -10 13 -10 -2z"/>
<path d="M1325 2635 c-22 -21 -23 -27 -13 -49 13 -30 40 -41 66 -27 39 21 37
71 -4 90 -21 9 -28 8 -49 -14z m61 -14 c-10 -16 -45 -19 -57 -5 -9 12 -5 14
25 14 21 0 35 -4 32 -9z m-21 -31 c3 -5 -1 -10 -10 -10 -9 0 -13 5 -10 10 3 6
8 10 10 10 2 0 7 -4 10 -10z"/>
<path d="M1553 2622 l-53 -3 0 -60 c0 -33 -4 -59 -10 -59 -5 0 -10 -9 -10 -20
0 -11 -3 -20 -7 -20 -5 0 -6 -27 -5 -60 5 -76 20 -78 25 -2 l3 57 2 -62 c2
-56 4 -63 22 -63 19 0 20 7 20 124 l0 125 43 3 c39 3 42 5 32 23 -8 17 -18 20
-62 17z"/>
<path d="M1293 2453 c9 -2 25 -2 35 0 9 3 1 5 -18 5 -19 0 -27 -2 -17 -5z"/>
<path d="M1371 2428 c5 -17 14 -36 20 -42 9 -8 9 -5 0 11 -19 37 -13 51 22 56
28 3 27 4 -10 5 l-42 2 10 -32z"/>
<path d="M1290 2330 c-9 -6 -10 -10 -3 -10 6 0 15 5 18 10 8 12 4 12 -15 0z"/>
<path d="M310 2275 c0 -9 9 -15 25 -15 16 0 25 -6 25 -15 0 -8 -9 -15 -20 -15
-29 0 -25 -17 6 -24 37 -10 28 -41 -11 -41 -17 -1 -29 -5 -27 -10 1 -6 18 -10
38 -10 45 0 65 24 46 55 -9 16 -10 24 0 39 9 15 9 23 -1 35 -18 21 -81 22 -81
1z"/>
<path d="M452 2238 c-34 -58 -33 -71 4 -62 20 5 26 2 31 -15 3 -11 10 -21 17
-21 15 0 40 54 26 58 -5 2 -10 24 -10 48 0 64 -29 61 -68 -8z m38 -13 c0 -16
-6 -25 -15 -25 -18 0 -19 4 -3 30 16 26 18 25 18 -5z"/>
<path d="M588 2279 c-10 -5 -18 -14 -18 -20 0 -5 8 -9 18 -7 13 2 17 -4 18
-32 1 -68 4 -80 19 -80 12 0 15 15 15 75 0 65 -2 75 -17 75 -10 0 -26 -5 -35
-11z"/>
<path d="M706 2274 c-18 -18 -21 -40 -6 -49 6 -4 5 -13 -3 -25 -17 -28 2 -54
40 -58 36 -4 68 22 57 47 -4 9 -7 29 -6 45 1 16 -3 36 -9 43 -15 18 -54 16
-73 -3z m50 -15 c10 -17 -13 -36 -27 -22 -12 12 -4 33 11 33 5 0 12 -5 16 -11z
m4 -80 c0 -25 -33 -22 -38 4 -2 12 3 17 17 17 15 0 21 -6 21 -21z"/>
<path d="M1128 2233 c7 -3 16 -2 19 1 4 3 -2 6 -13 5 -11 0 -14 -3 -6 -6z"/>
<path d="M1341 2186 c-8 -10 -9 -16 -1 -21 5 -3 11 -36 12 -73 l2 -67 5 70 c5
55 9 69 21 67 11 -3 10 2 -4 17 -23 25 -21 25 -35 7z"/>
<path d="M1328 1939 c-12 -6 -18 -22 -18 -43 0 -48 46 -65 86 -32 1 1 5 11 8
23 5 15 1 28 -13 42 -23 23 -37 25 -63 10z m44 -32 c-17 -10 -20 -15 -10 -25
9 -9 8 -12 -6 -12 -9 0 -15 4 -11 9 3 5 -2 17 -11 25 -14 15 -12 16 23 16 36
-1 37 -1 15 -13z"/>
<path d="M1102 1763 c-2 -52 -1 -53 26 -52 22 1 23 2 5 6 -18 4 -23 12 -26 51
l-3 47 -2 -52z"/>
<path d="M1307 1783 c-4 -3 -7 -37 -7 -75 l0 -68 55 0 55 0 0 75 0 75 -48 0
c-27 0 -52 -3 -55 -7z m73 -32 c13 -25 13 -44 0 -36 -5 3 -10 -1 -10 -9 0 -9
-7 -16 -15 -16 -8 0 -15 7 -15 16 0 8 -4 12 -10 9 -16 -10 -11 17 7 37 21 23
30 23 43 -1z"/>
<path d="M1336 1621 c-3 -5 1 -12 10 -15 22 -8 25 -4 9 11 -8 7 -16 9 -19 4z"/>
<path d="M1302 1568 c3 -8 24 -14 57 -16 39 -2 52 0 49 9 -2 7 -27 14 -57 17
-41 3 -52 1 -49 -10z"/>
<path d="M10870 3500 c-8 -5 -12 -11 -9 -14 2 -3 11 -1 19 4 8 5 12 11 9 14
-2 3 -11 1 -19 -4z"/>
<path d="M10900 3493 c0 -14 2 -15 9 -4 12 19 34 3 27 -22 -4 -15 -2 -17 7 -8
8 8 9 16 1 29 -16 24 -44 28 -44 5z"/>
<path d="M10883 3448 c11 -10 24 -15 31 -11 7 5 4 9 -9 11 -11 2 -25 7 -30 11
-6 3 -2 -2 8 -11z"/>
<path d="M10729 3323 c-22 -5 -31 -40 -12 -47 24 -10 53 -7 53 5 0 6 -8 8 -19
4 -19 -6 -19 -3 -12 34 1 2 8 -2 16 -9 9 -7 15 -8 15 -2 0 12 -20 19 -41 15z"/>
<path d="M11333 3444 c-24 -10 -13 -24 17 -24 34 0 41 -19 10 -27 -11 -3 -20
-12 -20 -19 0 -8 9 -14 20 -14 14 0 20 -7 20 -21 0 -18 -5 -21 -30 -17 -20 3
-30 0 -30 -9 0 -17 71 -18 88 -1 17 17 15 47 -3 54 -11 5 -12 9 -2 25 22 36
-26 71 -70 53z"/>
<path d="M11471 3400 c-17 -28 -31 -55 -31 -60 0 -6 16 -10 35 -10 24 0 35 -5
35 -15 0 -8 6 -15 13 -15 15 0 38 48 26 56 -5 3 -9 25 -9 50 0 63 -28 61 -69
-6z m39 -15 c0 -16 -6 -25 -15 -25 -18 0 -18 5 -5 31 14 26 20 24 20 -6z"/>
<path d="M11597 3435 c-43 -42 -25 -127 28 -133 37 -5 55 19 55 73 0 63 -47
96 -83 60z m48 -66 c0 -32 -4 -44 -15 -44 -16 0 -26 54 -16 82 12 30 31 6 31
-38z"/>
<path d="M11738 3439 c-22 -12 -23 -29 -3 -29 12 0 15 -13 15 -55 0 -42 3 -55
15 -55 12 0 15 15 15 75 0 78 -5 86 -42 64z"/>
<path d="M1301 3187 c-13 -21 -12 -21 5 -5 10 10 16 20 13 22 -3 3 -11 -5 -18
-17z"/>
<path d="M9779 3335 c-1 -5 -1 -13 0 -17 0 -5 -12 -8 -29 -8 -16 0 -30 -3 -30
-7 0 -5 58 -7 130 -5 l130 3 2 -158 c1 -87 3 -139 5 -115 2 23 8 42 14 42 5 0
9 7 9 16 0 8 -4 12 -10 9 -6 -4 -10 18 -10 59 0 37 4 66 10 66 6 0 10 7 10 16
0 8 -4 12 -10 9 -6 -4 -10 8 -10 29 0 35 -1 36 -37 36 -25 0 -33 3 -24 9 9 6
10 11 2 15 -6 4 -14 0 -17 -8 -9 -24 -102 -22 -120 2 -7 9 -14 13 -15 7z"/>
<path d="M10066 3331 c-4 -6 -4 -12 1 -12 4 -1 -8 -5 -27 -9 -22 -5 13 -8 98
-9 l132 -1 2 -157 c1 -87 3 -138 5 -113 3 24 10 48 16 52 9 6 9 8 0 8 -9 0
-13 21 -13 69 0 46 4 71 13 74 10 4 10 6 0 6 -8 1 -13 15 -13 36 0 34 -1 35
-37 36 -21 0 -32 3 -25 6 6 2 10 9 6 14 -9 14 -24 10 -24 -7 0 -21 -107 -18
-119 4 -6 10 -10 11 -15 3z"/>
<path d="M9705 3230 c3 -5 10 -10 16 -10 5 0 9 5 9 10 0 6 -7 10 -16 10 -8 0
-12 -4 -9 -10z"/>
<path d="M9705 3080 c4 -6 11 -8 16 -5 14 9 11 15 -7 15 -8 0 -12 -5 -9 -10z"/>
<path d="M9777 2976 c-8 -20 17 -26 96 -24 32 1 57 6 57 12 0 7 -24 10 -66 8
-44 -3 -69 0 -74 8 -5 8 -9 7 -13 -4z"/>
<path d="M10063 2975 c0 -20 30 -27 97 -23 46 3 55 6 57 23 2 11 0 14 -3 8 -7
-16 -125 -18 -140 -3 -7 7 -11 6 -11 -5z"/>
<path d="M2720 3266 c0 -8 11 -13 25 -13 31 0 28 19 -3 24 -14 2 -22 -2 -22
-11z"/>
<path d="M2716 3232 c-3 -6 -1 -14 5 -17 15 -10 25 3 12 16 -7 7 -13 7 -17 1z"/>
<path d="M2756 3231 c-4 -7 -5 -15 -2 -18 9 -9 19 4 14 18 -4 11 -6 11 -12 0z"/>
<path d="M2544 3143 c-16 -38 -5 -73 23 -73 15 0 15 2 -2 13 -14 11 -15 16 -5
22 9 6 10 9 0 15 -15 9 -4 30 15 30 17 0 30 -43 19 -61 -4 -8 -3 -9 4 -5 16 9
15 49 0 64 -17 17 -45 15 -54 -5z"/>
<path d="M5480 3266 c0 -8 11 -13 25 -13 31 0 28 19 -3 24 -14 2 -22 -2 -22
-11z"/>
<path d="M5480 3226 c0 -9 5 -16 10 -16 6 0 10 4 10 9 0 6 -4 13 -10 16 -5 3
-10 -1 -10 -9z"/>
<path d="M5516 3231 c-4 -7 -5 -15 -2 -18 9 -9 19 4 14 18 -4 11 -6 11 -12 0z"/>
<path d="M5318 3153 c7 -3 16 -2 19 1 4 3 -2 6 -13 5 -11 0 -14 -3 -6 -6z"/>
<path d="M5297 3127 c-8 -22 12 -57 32 -57 23 0 53 38 44 54 -4 6 -10 0 -13
-14 -4 -16 -14 -26 -28 -28 -23 -4 -29 7 -13 24 6 5 4 14 -4 21 -10 9 -14 9
-18 0z"/>
<path d="M5360 2651 c0 -5 12 -11 27 -13 33 -4 41 -24 14 -33 -27 -8 -27 -21
-1 -28 33 -9 25 -37 -11 -37 -20 0 -29 -4 -27 -12 7 -20 46 -21 74 -4 27 19
31 38 9 56 -11 9 -12 16 -3 30 19 30 3 50 -42 50 -22 0 -40 -4 -40 -9z"/>
<path d="M5506 2616 c-34 -58 -33 -66 9 -66 28 0 35 -4 35 -20 0 -25 18 -26
27 -2 4 9 11 21 17 25 8 6 7 10 -1 14 -8 3 -13 23 -13 49 0 40 -2 44 -24 44
-18 0 -31 -11 -50 -44z m35 -39 c-18 -18 -25 1 -11 30 l14 28 4 -24 c2 -13 -1
-28 -7 -34z"/>
<path d="M5643 2653 c-7 -2 -13 -11 -13 -19 0 -8 6 -11 15 -8 12 5 15 -5 15
-55 0 -48 3 -61 15 -61 12 0 15 15 15 75 0 78 -5 85 -47 68z"/>
<path d="M5773 2653 c-7 -2 -13 -11 -13 -19 0 -8 6 -11 15 -8 12 5 15 -5 15
-56 0 -45 3 -61 13 -58 8 3 13 30 15 76 3 64 1 72 -15 71 -10 0 -24 -3 -30 -6z"/>
<path d="M8249 3264 c-9 -11 -8 -14 7 -15 11 -1 22 -1 27 0 9 1 9 -13 0 -22
-3 -4 -12 -2 -20 4 -10 9 -13 8 -13 -5 0 -11 9 -16 26 -16 22 0 25 4 22 32 -3
34 -29 46 -49 22z"/>
<path d="M8074 3146 c-3 -8 -4 -27 -2 -43 2 -20 9 -29 25 -31 30 -4 51 37 34
64 -11 18 -12 18 -6 -2 8 -30 -4 -54 -26 -54 -21 0 -26 25 -6 33 10 4 10 6 0
6 -19 1 -15 29 5 34 16 4 16 5 -1 6 -10 0 -20 -5 -23 -13z"/>
<path d="M2234 3253 c-8 -29 6 -46 32 -41 13 2 19 12 19 32 0 23 -5 30 -23 31
-16 1 -24 -5 -28 -22z m43 -16 c-5 -15 -29 -16 -34 -2 -2 6 6 11 18 12 12 1
19 -3 16 -10z"/>
<path d="M2406 3144 c-9 -8 -16 -21 -16 -27 0 -6 7 -1 16 11 8 12 22 22 30 22
17 0 19 -26 2 -33 -10 -4 -10 -6 0 -6 16 -1 16 -31 -1 -31 -7 0 -18 5 -25 12
-9 9 -12 9 -12 1 0 -15 39 -28 51 -16 13 13 18 57 7 71 -14 16 -33 15 -52 -4z"/>
<path d="M2239 3113 c-13 -16 -12 -17 4 -4 9 7 17 15 17 17 0 8 -8 3 -21 -13z"/>
<path d="M1910 2651 c0 -5 12 -11 27 -13 33 -4 41 -24 14 -33 -27 -8 -27 -21
-1 -28 33 -9 25 -37 -11 -37 -20 0 -29 -4 -27 -12 7 -20 46 -21 74 -4 27 19
31 38 9 56 -11 9 -12 16 -3 30 19 30 3 50 -42 50 -22 0 -40 -4 -40 -9z"/>
<path d="M2056 2616 c-34 -58 -33 -66 9 -66 28 0 35 -4 35 -20 0 -25 18 -26
27 -2 4 9 11 21 17 25 8 6 7 10 -1 14 -8 3 -13 23 -13 49 0 40 -2 44 -24 44
-18 0 -31 -11 -50 -44z m35 -39 c-18 -18 -25 1 -11 30 l14 28 4 -24 c2 -13 -1
-28 -7 -34z"/>
<path d="M2187 2649 c-20 -12 -13 -31 8 -22 12 4 15 -6 15 -56 0 -48 3 -61 15
-61 12 0 15 15 15 75 0 65 -2 75 -17 75 -10 0 -26 -5 -36 -11z"/>
<path d="M2290 2650 c0 -5 16 -10 35 -10 19 0 35 -2 35 -5 0 -3 -11 -28 -25
-55 -28 -56 -31 -70 -12 -70 12 0 77 118 77 140 0 6 -25 10 -55 10 -30 0 -55
-4 -55 -10z"/>
<path d="M3615 3271 c-11 -10 -4 -23 10 -17 8 3 15 1 15 -5 0 -6 5 -7 10 -4 6
3 10 2 10 -4 0 -18 -21 -23 -37 -9 -14 11 -15 11 -11 -2 6 -18 36 -26 50 -12
17 17 1 58 -22 58 -12 0 -23 -2 -25 -5z"/>
<path d="M3636 3143 c-6 -14 -5 -15 5 -6 7 7 10 15 7 18 -3 3 -9 -2 -12 -12z"/>
<path d="M3786 3144 c-19 -18 -20 -28 -6 -55 20 -36 70 -17 70 26 0 41 -36 58
-64 29z m44 -9 c0 -8 -6 -15 -12 -16 -10 0 -10 -2 0 -6 18 -7 15 -35 -4 -31
-27 5 -40 34 -25 52 17 20 41 21 41 1z"/>
<path d="M4100 3270 c-6 -4 -10 -18 -8 -31 2 -18 10 -25 31 -27 26 -3 28 -1
25 29 -3 33 -23 45 -48 29z m40 -32 c0 -15 -18 -17 -30 -3 -9 11 -8 14 9 12
12 -1 21 -5 21 -9z"/>
<path d="M3947 3153 c12 -2 26 -16 32 -31 5 -15 10 -21 10 -14 2 26 -20 52
-42 51 l-22 -2 22 -4z"/>
<path d="M3922 3109 c3 -36 30 -51 52 -29 8 8 7 10 -6 5 -23 -9 -42 3 -29 18
6 8 4 17 -6 26 -12 11 -14 9 -11 -20z"/>
<path d="M3975 2651 c-4 -7 6 -11 24 -11 36 0 43 -25 11 -35 -11 -3 -20 -11
-20 -16 0 -5 9 -9 20 -9 13 0 20 -7 20 -20 0 -16 -7 -20 -31 -20 -40 0 -34
-24 8 -28 38 -4 67 22 58 52 -4 12 -8 37 -8 56 -2 33 -4 35 -39 38 -20 2 -39
-2 -43 -7z"/>
<path d="M4118 2614 c-16 -25 -28 -49 -28 -55 0 -5 16 -9 35 -9 28 0 35 -4 35
-20 0 -11 7 -20 15 -20 8 0 15 9 15 19 0 11 6 21 13 24 10 4 10 7 0 18 -7 7
-13 30 -13 51 0 33 -3 38 -22 38 -16 -1 -31 -14 -50 -46z m33 -37 c-18 -18
-25 2 -10 30 14 26 14 26 17 4 2 -13 -1 -28 -7 -34z"/>
<path d="M4253 2653 c-7 -2 -13 -11 -13 -19 0 -8 6 -11 14 -8 12 5 16 -6 18
-52 2 -35 8 -59 16 -62 9 -3 12 16 12 72 0 79 -5 86 -47 69z"/>
<path d="M4377 2615 c-15 -25 -27 -50 -27 -55 0 -6 16 -10 35 -10 28 0 35 -4
35 -20 0 -11 7 -20 15 -20 8 0 15 8 15 18 0 10 5 23 12 30 9 9 9 12 0 12 -8 0
-12 17 -12 45 0 40 -2 45 -23 45 -16 0 -30 -13 -50 -45z m34 -38 c-18 -18 -25
1 -11 30 l14 28 4 -24 c2 -13 -1 -28 -7 -34z"/>
<path d="M4993 3264 c-10 -27 2 -49 27 -49 21 0 25 5 25 29 0 24 -5 30 -23 31
-13 1 -26 -4 -29 -11z m45 -26 c-3 -7 -11 -13 -18 -13 -7 0 -15 6 -17 13 -3 7
4 12 17 12 13 0 20 -5 18 -12z"/>
<path d="M5169 3143 c-11 -15 -11 -16 1 -5 8 6 20 12 27 12 17 0 17 -27 1 -33
-10 -4 -10 -6 0 -6 17 -1 15 -31 -2 -31 -8 0 -22 10 -30 22 -9 12 -16 17 -16
11 0 -16 29 -43 45 -43 24 0 39 39 26 66 -13 28 -33 31 -52 7z"/>
<path d="M4670 2646 c0 -9 8 -12 25 -8 31 5 35 -23 5 -33 -27 -8 -25 -23 3
-27 35 -5 27 -32 -10 -36 -39 -4 -43 -19 -7 -28 37 -10 74 10 74 40 0 14 -5
28 -10 31 -7 4 -6 13 1 26 7 15 7 24 -2 35 -15 18 -79 19 -79 0z"/>
<path d="M4815 2619 c-42 -65 -42 -69 -1 -69 29 0 36 -4 36 -20 0 -11 7 -20
15 -20 8 0 15 9 15 19 0 11 6 21 13 24 10 4 10 7 0 18 -7 7 -13 30 -13 51 0
53 -31 52 -65 -3z m35 -19 c0 -20 -5 -30 -15 -30 -18 0 -18 2 -3 35 15 32 18
32 18 -5z"/>
<path d="M4943 2653 c-7 -2 -13 -11 -13 -19 0 -8 6 -11 15 -8 12 5 15 -4 15
-49 0 -54 14 -82 29 -58 6 9 7 88 2 134 -1 8 -29 8 -48 0z"/>
<path d="M5055 2650 c-7 -11 0 -13 26 -11 9 1 21 -5 28 -13 10 -12 6 -22 -23
-54 -20 -22 -36 -45 -36 -51 0 -7 20 -11 50 -11 38 0 50 4 50 15 0 9 -10 15
-26 15 l-26 0 26 31 c28 33 33 58 14 77 -15 15 -74 16 -83 2z"/>
<path d="M6383 3264 c-10 -27 2 -49 27 -49 21 0 25 5 25 30 0 24 -4 30 -23 31
-13 1 -26 -5 -29 -12z m47 -24 c0 -10 -26 -20 -34 -13 -11 12 -6 19 14 20 11
1 20 -2 20 -7z"/>
<path d="M6583 3154 c20 -6 23 -30 5 -37 -10 -4 -10 -6 0 -6 17 -1 15 -31 -2
-31 -22 0 -38 27 -31 52 5 21 5 21 -6 4 -17 -27 4 -68 34 -64 19 3 22 9 22 43
0 32 -4 40 -20 42 -16 1 -16 1 -2 -3z"/>
<path d="M6060 2646 c0 -9 8 -12 24 -9 34 7 42 -15 12 -29 -32 -14 -33 -26 -3
-30 35 -5 27 -32 -10 -36 -39 -4 -43 -19 -7 -28 37 -10 74 10 74 40 0 14 -4
28 -10 31 -6 4 -5 13 2 25 9 14 9 22 -1 34 -17 20 -81 22 -81 2z"/>
<path d="M6198 2614 c-16 -25 -28 -49 -28 -55 0 -5 16 -9 35 -9 28 0 35 -4 35
-20 0 -25 18 -26 27 -2 4 9 11 21 17 25 8 6 7 10 -1 14 -8 3 -13 23 -13 49 0
39 -3 44 -22 44 -16 -1 -31 -14 -50 -46z m33 -37 c-18 -18 -25 1 -11 30 l14
28 4 -24 c2 -13 -1 -28 -7 -34z"/>
<path d="M6333 2653 c-7 -2 -13 -11 -13 -19 0 -8 6 -11 15 -8 12 5 15 -5 15
-55 0 -48 3 -61 15 -61 12 0 15 15 15 75 0 78 -5 85 -47 68z"/>
<path d="M6452 2647 c-35 -41 -19 -122 26 -134 48 -12 82 71 52 128 -12 22
-62 26 -78 6z m56 -55 c2 -31 -1 -44 -13 -48 -22 -9 -28 1 -27 41 3 70 35 75
40 7z"/>
<path d="M6864 3253 c-4 -14 -2 -29 4 -35 14 -14 44 -6 50 12 3 12 2 12 -8 3
-13 -12 -40 -7 -40 9 0 5 5 6 10 3 6 -3 10 -2 10 4 0 6 7 8 16 4 11 -4 15 -2
12 7 -2 7 -14 14 -26 15 -16 1 -24 -5 -28 -22z"/>
<path d="M6690 3134 c-18 -47 25 -85 58 -52 14 14 16 54 3 63 -6 3 -9 -6 -8
-21 1 -15 -5 -31 -15 -37 -22 -15 -35 -2 -18 18 8 10 9 15 1 15 -18 0 -13 28
7 33 16 4 16 5 -1 6 -10 1 -21 -10 -27 -25z"/>
<path d="M6740 2647 c0 -7 11 -13 27 -12 32 0 42 -21 14 -30 -27 -8 -27 -21
-1 -28 32 -8 25 -37 -9 -37 -36 0 -49 -16 -20 -25 51 -17 108 30 76 63 -12 11
-13 19 -5 32 19 30 3 50 -42 50 -26 0 -40 -5 -40 -13z"/>
<path d="M6886 2616 c-33 -57 -33 -66 5 -66 22 0 32 -5 36 -20 3 -11 9 -20 14
-20 16 0 25 43 21 98 -3 46 -6 52 -27 52 -17 0 -30 -12 -49 -44z m44 -15 c0
-20 -17 -37 -27 -28 -7 8 7 47 18 47 5 0 9 -9 9 -19z"/>
<path d="M7004 2635 c-30 -45 -2 -125 43 -125 42 0 69 82 43 131 -16 29 -65
25 -86 -6z m62 -20 c8 -33 -3 -75 -21 -75 -18 0 -28 33 -20 70 8 36 32 39 41
5z"/>
<path d="M7132 2648 c-29 -29 -7 -78 35 -78 33 0 28 -19 -7 -26 -30 -7 -43
-34 -15 -34 62 0 105 75 75 131 -12 22 -68 27 -88 7z m62 -24 c7 -19 -1 -34
-19 -34 -18 0 -28 17 -21 35 7 20 32 19 40 -1z"/>
<path d="M7763 3263 c-14 -36 24 -70 50 -44 15 15 0 26 -17 12 -18 -15 -34 5
-17 22 8 8 11 8 11 -1 0 -6 6 -9 14 -6 8 3 13 11 10 18 -6 15 -45 15 -51 -1z"/>
<path d="M7963 3153 c19 -5 24 -33 6 -33 -8 0 -7 -5 1 -15 17 -20 4 -33 -18
-18 -10 7 -16 22 -15 39 2 25 1 27 -9 10 -14 -25 5 -66 31 -66 29 0 46 36 32
66 -6 13 -19 23 -28 23 -17 -1 -17 -2 0 -6z"/>
<path d="M7430 2651 c0 -5 12 -11 27 -13 33 -4 41 -24 14 -33 -27 -8 -27 -21
-1 -28 33 -9 25 -37 -11 -37 -20 0 -29 -4 -27 -12 7 -20 46 -21 74 -4 27 19
31 38 9 56 -11 9 -12 16 -3 30 19 30 3 50 -42 50 -22 0 -40 -4 -40 -9z"/>
<path d="M7577 2615 c-15 -25 -27 -50 -27 -55 0 -6 16 -10 35 -10 28 0 35 -4
35 -20 0 -11 7 -20 15 -20 8 0 15 8 15 18 0 10 5 23 12 30 9 9 9 12 0 12 -8 0
-12 17 -12 45 0 40 -2 45 -23 45 -16 0 -30 -13 -50 -45z m34 -38 c-18 -18 -25
1 -11 30 l14 28 4 -24 c2 -13 -1 -28 -7 -34z"/>
<path d="M7701 2647 c-6 -8 -13 -27 -17 -43 -14 -70 49 -123 88 -74 20 24 24
80 8 111 -12 22 -62 26 -79 6z m57 -55 c2 -31 -1 -44 -13 -48 -22 -9 -27 -1
-27 40 0 69 35 76 40 8z"/>
<path d="M7824 2645 c-4 -8 -4 -25 -1 -37 4 -12 1 -28 -4 -34 -30 -36 28 -78
77 -55 25 11 34 54 14 66 -7 4 -7 12 -1 23 6 10 6 23 0 34 -12 23 -77 25 -85
3z m59 -20 c1 -5 -6 -11 -15 -13 -11 -2 -18 3 -18 13 0 17 30 18 33 0z m7 -76
c0 -5 -9 -9 -20 -9 -19 0 -27 20 -13 33 7 8 33 -11 33 -24z"/>
<path d="M2600 2646 c0 -9 8 -12 25 -8 31 5 35 -23 5 -33 -27 -8 -25 -23 3
-27 35 -5 27 -33 -11 -36 -35 -3 -40 -24 -8 -30 53 -11 96 37 66 73 -10 12
-10 18 0 30 10 12 10 18 0 30 -16 19 -80 20 -80 1z"/>
<path d="M2738 2611 c-15 -26 -25 -51 -21 -55 3 -3 19 -6 35 -6 21 0 28 -5 28
-20 0 -11 7 -20 15 -20 8 0 15 9 15 19 0 11 6 21 13 24 10 4 10 7 0 18 -7 7
-13 30 -13 51 0 33 -3 38 -22 38 -17 0 -30 -13 -50 -49z m33 -34 c-18 -18 -23
-1 -9 29 13 28 13 28 16 5 2 -13 -1 -28 -7 -34z"/>
<path d="M2873 2653 c-7 -2 -13 -11 -13 -19 0 -8 6 -11 15 -8 12 5 15 -5 15
-55 0 -48 3 -61 15 -61 12 0 15 15 15 75 0 78 -5 85 -47 68z"/>
<path d="M3004 2645 c-44 -30 -35 -119 12 -131 27 -7 60 9 66 33 9 34 -7 58
-43 64 l-34 6 33 14 c17 7 32 17 32 21 0 13 -44 9 -66 -7z m44 -83 c3 -17 -2
-22 -17 -22 -14 0 -21 6 -21 18 0 38 33 41 38 4z"/>
<path d="M3419 3133 c-13 -16 -12 -17 4 -4 9 7 17 15 17 17 0 8 -8 3 -21 -13z"/>
<path d="M3290 2646 c0 -9 8 -12 25 -8 28 5 36 -21 10 -32 -22 -8 -18 -23 6
-29 31 -8 18 -31 -19 -35 -39 -4 -42 -19 -6 -28 37 -10 74 10 74 40 0 14 -5
28 -10 31 -7 4 -6 13 1 26 7 15 7 24 -2 35 -15 18 -79 19 -79 0z"/>
<path d="M3435 2623 c-34 -51 -33 -73 4 -73 20 0 30 -6 34 -20 7 -26 27 -26
27 -1 0 11 6 21 13 24 10 4 10 7 0 18 -7 7 -13 30 -13 51 0 52 -30 52 -65 1z
m26 -46 c-17 -17 -24 -1 -10 25 12 21 14 21 17 4 2 -10 -1 -23 -7 -29z"/>
<path d="M3563 2653 c-7 -2 -13 -11 -13 -19 0 -8 6 -11 14 -8 12 5 16 -6 18
-52 2 -35 8 -59 16 -62 9 -3 12 16 12 72 0 79 -5 86 -47 69z"/>
<path d="M3680 2627 c0 -27 5 -35 31 -44 39 -15 33 -37 -10 -41 -36 -4 -38
-25 -2 -30 33 -5 71 24 71 54 0 19 -7 29 -30 37 -16 6 -30 17 -30 24 0 8 12
13 30 13 17 0 30 5 30 10 0 6 -20 10 -45 10 -44 0 -45 -1 -45 -33z"/>
<path d="M8120 2646 c0 -9 8 -12 25 -8 31 5 35 -23 5 -33 -27 -8 -25 -23 3
-27 35 -5 27 -33 -11 -36 -41 -4 -38 -26 5 -30 18 -2 37 3 47 13 18 18 21 51
6 60 -7 4 -6 13 1 26 7 15 7 24 -2 35 -15 18 -79 19 -79 0z"/>
<path d="M8258 2610 c-16 -28 -28 -52 -28 -55 0 -3 16 -5 35 -5 28 0 35 -4 35
-20 0 -11 7 -20 15 -20 8 0 15 9 15 19 0 11 6 21 13 24 10 4 10 7 0 18 -7 7
-13 30 -13 51 0 33 -3 38 -22 38 -17 0 -30 -13 -50 -50z m42 -10 c0 -20 -5
-30 -15 -30 -18 0 -18 2 -3 35 15 32 18 32 18 -5z"/>
<path d="M8380 2641 c-5 -11 -10 -37 -10 -59 0 -48 27 -77 64 -68 40 10 55 93
23 134 -15 19 -65 15 -77 -7z m55 -52 c0 -32 -4 -44 -15 -44 -16 0 -26 54 -16
82 12 30 31 6 31 -38z"/>
<path d="M8500 2650 c0 -5 14 -10 30 -10 36 0 37 -7 5 -70 -29 -58 -30 -60
-11 -60 14 0 76 114 76 139 0 7 -20 11 -50 11 -27 0 -50 -4 -50 -10z"/>
<path d="M11333 2644 c-24 -10 -13 -24 17 -24 34 0 41 -19 10 -27 -11 -3 -20
-12 -20 -19 0 -8 9 -14 20 -14 14 0 20 -7 20 -21 0 -18 -5 -21 -30 -17 -20 3
-30 0 -30 -9 0 -17 71 -18 88 -1 17 17 15 47 -3 54 -11 5 -12 9 -2 25 22 36
-26 71 -70 53z"/>
<path d="M11471 2600 c-17 -28 -31 -55 -31 -60 0 -6 16 -10 35 -10 24 0 35 -5
35 -15 0 -8 6 -15 13 -15 15 0 38 48 26 56 -5 3 -9 25 -9 50 0 63 -28 61 -69
-6z m39 -15 c0 -16 -6 -25 -15 -25 -18 0 -18 5 -5 31 14 26 20 24 20 -6z"/>
<path d="M11597 2635 c-43 -42 -25 -127 28 -133 37 -5 55 19 55 73 0 63 -47
96 -83 60z m48 -66 c0 -32 -4 -44 -15 -44 -16 0 -26 54 -16 82 12 30 31 6 31
-38z"/>
<path d="M11723 2643 c-24 -9 -13 -23 17 -23 24 0 30 -4 30 -21 0 -11 -13 -33
-30 -47 -44 -39 -39 -52 20 -52 28 0 50 5 50 10 0 6 -11 10 -25 10 -30 0 -32
11 -5 35 29 26 34 54 14 76 -16 18 -45 23 -71 12z"/>
<path d="M10710 2250 c0 -5 6 -10 13 -10 8 0 7 -3 -3 -10 -8 -5 -11 -12 -7
-16 11 -12 30 13 24 30 -7 18 -27 22 -27 6z"/>
<path d="M10750 2250 c0 -5 5 -10 10 -10 6 0 10 5 10 10 0 6 -4 10 -10 10 -5
0 -10 -4 -10 -10z"/>
<path d="M10750 2220 c0 -5 5 -10 10 -10 6 0 10 5 10 10 0 6 -4 10 -10 10 -5
0 -10 -4 -10 -10z"/>
<path d="M1760 1896 c0 -2 7 -7 16 -10 8 -3 12 -2 9 4 -6 10 -25 14 -25 6z"/>
<path d="M1735 1879 c-4 -6 -5 -12 -2 -15 2 -3 7 2 10 11 7 17 1 20 -8 4z"/>
<path d="M1732 1830 c5 -17 58 -27 58 -11 0 6 -7 8 -15 5 -8 -4 -23 0 -32 7
-14 12 -16 12 -11 -1z"/>
<path d="M1607 1763 c-14 -13 -6 -25 8 -13 12 10 18 10 30 0 12 -10 15 -10 15
4 0 16 -40 23 -53 9z"/>
<path d="M1609 1729 c-10 -6 -9 -10 6 -15 11 -4 23 -9 26 -10 4 -2 9 2 12 10
7 17 -25 27 -44 15z"/>
<path d="M9225 1821 c-6 -11 -3 -13 29 -15 27 -1 32 -26 7 -33 -23 -6 -29 -23
-7 -23 7 0 19 -6 25 -14 16 -19 -8 -37 -38 -29 -18 4 -22 2 -19 -8 6 -18 51
-23 78 -9 20 11 27 40 13 54 -5 4 -8 24 -8 44 0 35 -2 37 -37 40 -20 2 -39 -2
-43 -7z"/>
<path d="M9367 1785 c-34 -58 -34 -65 4 -65 22 0 32 -5 36 -20 3 -11 11 -20
18 -20 16 0 22 31 17 98 -3 45 -7 52 -26 52 -14 0 -30 -14 -49 -45z m41 -17
c-2 -13 -11 -24 -21 -26 -15 -3 -16 0 -6 22 15 32 32 34 27 4z"/>
<path d="M9486 1808 c-34 -48 -9 -128 39 -128 13 0 31 10 39 22 34 48 9 128
-39 128 -13 0 -31 -10 -39 -22z m64 -51 c0 -10 -5 -28 -11 -39 -11 -21 -12
-21 -25 -3 -17 23 -18 49 -3 77 11 21 12 21 25 3 8 -10 14 -27 14 -38z"/>
<path d="M9625 1805 c-46 -45 -25 -125 33 -125 48 0 72 69 31 90 -11 7 -27 9
-35 6 -8 -3 -14 -1 -14 5 0 6 14 16 30 22 37 14 39 27 5 27 -14 0 -37 -11 -50
-25z m45 -60 c10 -12 10 -18 0 -31 -12 -13 -15 -13 -28 0 -15 15 -10 46 6 46
5 0 15 -7 22 -15z"/>
<path d="M10142 1298 c-7 -7 -12 -17 -12 -22 0 -6 5 -3 11 7 12 21 42 22 59 2
10 -12 10 -19 1 -28 -9 -9 -14 -9 -20 2 -6 10 -10 10 -16 1 -4 -6 -14 -9 -22
-6 -8 3 -11 1 -8 -4 9 -14 59 -12 73 2 16 16 15 23 -4 42 -18 19 -45 21 -62 4z"/>
<path d="M10710 1752 c0 -5 14 -9 30 -9 17 0 30 4 30 9 0 4 -13 8 -30 8 -16 0
-30 -4 -30 -8z"/>
<path d="M10709 1721 c-22 -18 -22 -19 -4 -18 11 1 24 8 28 15 14 22 1 24 -24
3z"/>
<path d="M10750 1715 c-11 -13 -10 -14 4 -9 9 3 16 10 16 15 0 13 -6 11 -20
-6z"/>
<path d="M11325 1821 c-6 -11 -5 -12 29 -15 27 -2 32 -26 7 -33 -23 -6 -29
-23 -7 -23 7 0 19 -6 25 -14 15 -18 -8 -37 -37 -29 -16 4 -22 1 -22 -11 0 -12
9 -16 34 -16 48 0 83 39 59 64 -5 4 -8 24 -8 44 0 35 -2 37 -37 40 -20 2 -39
-2 -43 -7z"/>
<path d="M11470 1783 c-17 -26 -30 -51 -30 -55 0 -4 14 -8 31 -8 22 0 32 -5
36 -20 7 -26 33 -26 33 -1 0 11 6 22 13 25 10 5 10 7 0 12 -8 3 -13 24 -13 50
0 37 -3 44 -20 44 -13 0 -31 -16 -50 -47z m40 -18 c0 -16 -6 -25 -15 -25 -18
0 -18 5 -5 31 14 26 20 24 20 -6z"/>
<path d="M11584 1799 c-27 -53 -4 -119 42 -119 34 0 54 26 54 71 0 56 -15 79
-50 79 -23 0 -33 -7 -46 -31z m64 -23 c5 -44 -6 -76 -23 -70 -15 6 -22 84 -8
98 13 13 28 -1 31 -28z"/>
<path d="M11715 1820 c-6 -10 -4 -11 29 -14 27 -2 32 -26 7 -33 -27 -7 -27
-19 -1 -26 11 -3 20 -12 20 -21 0 -16 -10 -20 -42 -17 -10 1 -18 -4 -18 -13 0
-24 63 -21 86 5 14 16 16 24 7 38 -6 9 -9 30 -6 45 4 18 1 31 -8 37 -19 12
-66 11 -74 -1z"/>
<path d="M700 1296 c0 -9 8 -12 24 -9 31 6 42 -13 16 -27 -26 -14 -26 -26 1
-33 27 -7 19 -31 -12 -35 -35 -5 -45 -19 -19 -27 52 -16 109 30 77 63 -12 11
-13 19 -5 32 19 30 3 50 -42 50 -27 0 -40 -4 -40 -14z"/>
<path d="M846 1270 c-34 -52 -34 -70 3 -70 20 0 30 -6 34 -20 7 -27 20 -25 35
7 8 18 9 30 2 37 -5 5 -10 27 -10 48 0 52 -28 51 -64 -2z m30 -47 c-2 -3 -9
-2 -15 2 -8 4 -7 13 1 28 l13 22 3 -23 c2 -13 1 -26 -2 -29z"/>
<path d="M971 1301 c-17 -11 -5 -32 14 -24 12 4 15 -6 15 -57 0 -45 3 -61 13
-58 8 3 13 30 15 76 3 69 2 72 -20 72 -13 0 -29 -4 -37 -9z"/>
<path d="M1092 1298 c-15 -15 -15 -51 0 -66 7 -7 23 -12 36 -12 21 0 22 -2 12
-15 -7 -8 -21 -15 -31 -15 -11 0 -19 -7 -19 -15 0 -25 40 -17 71 14 50 50 33
121 -30 121 -15 0 -32 -5 -39 -12z m62 -24 c7 -19 -1 -34 -19 -34 -18 0 -28
17 -21 35 7 20 32 19 40 -1z"/>
<path d="M10136 1154 c-12 -11 -13 -20 -6 -34 15 -28 49 -35 69 -14 15 17 15
17 -1 5 -18 -13 -58 -7 -58 10 0 5 0 12 0 17 0 11 53 10 70 -2 8 -6 6 -1 -4
12 -22 26 -48 28 -70 6z"/>
<path d="M9205 1051 c-3 -5 7 -11 22 -13 33 -4 41 -24 14 -33 -27 -8 -27 -25
-1 -25 13 0 20 -7 20 -20 0 -16 -7 -20 -31 -20 -20 0 -29 -4 -27 -12 7 -20 46
-21 74 -4 27 19 31 38 9 59 -13 13 -13 17 0 27 24 20 1 50 -40 50 -18 0 -36
-4 -40 -9z"/>
<path d="M9348 1016 c-36 -57 -35 -66 7 -66 28 0 35 -4 35 -20 0 -25 18 -26
27 -2 4 9 11 20 17 24 8 5 7 11 -2 20 -6 6 -12 29 -12 50 0 33 -3 38 -22 38
-16 -1 -32 -14 -50 -44z m33 -39 c-18 -18 -25 2 -10 30 14 26 14 26 17 4 2
-13 -1 -28 -7 -34z"/>
<path d="M9473 1048 c-32 -41 -17 -124 23 -134 39 -10 64 19 64 76 0 25 -5 51
-12 58 -16 16 -63 15 -75 0z m52 -59 c0 -32 -4 -44 -15 -44 -16 0 -26 54 -16
82 12 30 31 6 31 -38z"/>
<path d="M9600 1041 c0 -11 -2 -26 -6 -34 -3 -10 4 -16 25 -20 22 -5 31 -12
31 -27 0 -16 -7 -20 -30 -20 -31 0 -41 -16 -15 -26 26 -10 65 6 77 31 9 21 8
28 -7 45 -10 11 -27 20 -37 20 -29 0 -16 24 15 28 42 5 32 22 -13 22 -33 0
-40 -3 -40 -19z"/>
<path d="M11325 1051 c-7 -12 -1 -14 33 -11 28 2 30 -26 2 -35 -11 -3 -20 -11
-20 -16 0 -5 9 -9 20 -9 13 0 20 -7 20 -20 0 -16 -7 -20 -31 -20 -20 0 -29 -4
-26 -12 6 -17 77 -14 88 3 5 8 7 23 3 34 -3 11 -7 36 -7 55 -2 33 -4 35 -39
38 -20 2 -39 -2 -43 -7z"/>
<path d="M11468 1011 c-16 -27 -28 -52 -28 -55 0 -3 16 -6 35 -6 28 0 35 -4
35 -20 0 -11 7 -20 15 -20 8 0 15 9 15 19 0 11 6 22 13 25 10 5 10 7 0 12 -8
3 -13 24 -13 50 0 39 -3 44 -22 44 -17 0 -30 -13 -50 -49z m33 -34 c-18 -18
-25 2 -10 30 14 26 14 26 17 4 2 -13 -1 -28 -7 -34z"/>
<path d="M11592 1048 c-51 -65 11 -175 68 -123 22 20 27 83 10 116 -12 22 -62
26 -78 7z m53 -59 c0 -32 -4 -44 -15 -44 -16 0 -26 54 -16 82 12 30 31 6 31
-38z"/>
<path d="M11727 1015 c-15 -25 -27 -50 -27 -55 0 -6 16 -10 35 -10 28 0 35 -4
35 -20 0 -11 7 -20 15 -20 8 0 15 8 15 18 0 10 5 23 12 30 9 9 9 12 0 12 -8 0
-12 17 -12 45 0 40 -2 45 -23 45 -16 0 -30 -13 -50 -45z m39 -30 c-7 -18 -26
-20 -26 -2 0 18 24 41 28 27 2 -6 1 -17 -2 -25z"/>
<path d="M10810 890 c-9 -6 -10 -10 -3 -10 6 0 15 5 18 10 8 12 4 12 -15 0z"/>
<path d="M10874 514 c-18 -14 -18 -14 6 -3 31 14 36 19 24 19 -6 0 -19 -7 -30
-16z"/>
<path d="M10929 507 c11 -14 11 -21 2 -30 -9 -9 -14 -9 -21 3 -8 12 -10 12
-10 1 0 -9 -7 -11 -21 -8 -16 4 -19 3 -11 -5 16 -16 42 -19 64 -7 23 12 23 33
1 50 -16 13 -17 12 -4 -4z"/>
<path d="M606 744 c-3 -9 5 -12 25 -12 16 1 28 6 26 11 -5 15 -45 16 -51 1z"/>
<path d="M607 714 c-11 -12 3 -24 29 -24 15 0 24 6 24 16 0 13 -3 14 -13 5 -9
-7 -17 -7 -23 -1 -6 6 -13 7 -17 4z"/>
<path d="M476 641 c-3 -4 5 -6 18 -4 27 5 41 -20 30 -53 -5 -18 -5 -18 6 0 9
13 9 24 1 42 -10 23 -44 33 -55 15z"/>
<path d="M475 570 c3 -5 14 -10 23 -10 15 0 15 2 2 10 -20 13 -33 13 -25 0z"/>
<path d="M1639 3673 c-13 -16 -12 -17 4 -4 9 7 17 15 17 17 0 8 -8 3 -21 -13z"/>
<path d="M12250 3545 c0 -15 5 -17 40 -17 49 0 60 3 60 17 0 11 -12 15 -50 15
-38 0 -50 -4 -50 -15z"/>
<path d="M10482 3258 c-28 -28 -3 -88 37 -88 22 0 51 30 51 53 0 38 -61 62
-88 35z m55 -33 c-13 -26 -33 -35 -23 -10 3 9 0 15 -9 15 -8 0 -15 5 -15 10 0
6 13 10 29 10 27 0 28 -1 18 -25z"/>
<path d="M10510 3097 c0 -35 -5 -68 -10 -73 -8 -8 -6 -15 5 -24 13 -11 19 -11
33 3 10 11 12 17 4 17 -8 0 -12 22 -12 70 0 40 -4 70 -10 70 -6 0 -10 -28 -10
-63z"/>
<path d="M110 3120 c0 -17 7 -20 50 -20 43 0 50 3 50 20 0 17 -7 20 -50 20
-43 0 -50 -3 -50 -20z"/>
<path d="M10510 2795 c0 -44 -4 -65 -12 -65 -8 0 -6 -6 5 -17 16 -16 18 -16
34 0 11 11 13 17 5 17 -8 0 -12 21 -12 65 0 37 -4 65 -10 65 -6 0 -10 -28 -10
-65z"/>
<path d="M10190 2635 l0 -55 93 1 c50 1 84 3 75 6 -14 3 -18 15 -18 54 l0 49
-75 0 -75 0 0 -55z m86 21 c18 -19 18 -36 -1 -36 -9 0 -12 -6 -9 -15 8 -21 -9
-19 -37 4 -23 19 -24 19 -5 40 22 25 32 26 52 7z"/>
<path d="M10382 2684 c19 -6 31 -85 14 -96 -6 -4 -1 -8 12 -8 15 0 22 6 22 20
0 11 7 20 15 20 8 0 15 5 15 10 0 6 -6 10 -14 10 -8 0 -16 10 -18 23 -2 17
-10 22 -33 24 -16 1 -23 -1 -13 -3z"/>
<path d="M9976 2664 c-19 -18 -21 -55 -4 -72 18 -18 53 -15 71 6 22 24 21 45
-1 65 -23 21 -46 22 -66 1z m59 -14 c3 -5 2 -10 -3 -10 -5 0 -13 -10 -16 -22
l-6 -23 -15 25 c-8 14 -14 28 -15 33 0 11 48 9 55 -3z"/>
<path d="M10486 2664 c-23 -22 -20 -61 5 -74 52 -28 102 28 64 70 -22 24 -48
26 -69 4z m59 -14 c3 -5 1 -10 -4 -10 -6 0 -11 -9 -11 -20 0 -11 -5 -20 -11
-20 -6 0 -9 9 -6 20 3 13 0 20 -9 20 -8 0 -14 5 -14 10 0 6 11 10 24 10 14 0
28 -4 31 -10z"/>
<path d="M9750 2646 c-11 -15 -11 -19 3 -34 11 -10 17 -12 17 -4 0 8 22 12 70
12 40 0 70 4 70 10 0 6 -30 10 -69 10 -42 0 -71 4 -73 11 -2 7 -9 5 -18 -5z"/>
<path d="M10360 2655 c0 -5 5 -17 10 -25 5 -8 10 -10 10 -5 0 6 -5 17 -10 25
-5 8 -10 11 -10 5z"/>
<path d="M10500 2475 c-9 -10 -9 -15 -1 -15 7 0 11 -25 11 -70 0 -40 4 -70 10
-70 6 0 10 30 10 70 0 45 4 70 11 70 8 0 8 5 -1 15 -7 8 -16 15 -20 15 -4 0
-13 -7 -20 -15z"/>
<path d="M10486 2224 c-23 -22 -20 -61 5 -74 52 -28 102 28 64 70 -22 24 -48
26 -69 4z m59 -14 c3 -5 1 -10 -4 -10 -6 0 -11 -9 -11 -20 0 -11 -4 -20 -10
-20 -5 0 -10 9 -10 20 0 11 -6 20 -12 20 -9 0 -8 4 2 10 19 13 37 13 45 0z"/>
<path d="M10470 1880 c0 -60 3 -70 18 -71 9 0 32 -1 50 -2 l32 -2 0 73 0 72
-50 0 -50 0 0 -70z m72 33 c19 -17 24 -43 9 -43 -5 0 -12 6 -14 13 -3 6 -6 2
-6 -10 -1 -26 -21 -32 -21 -7 0 10 -6 14 -15 10 -20 -7 -19 13 2 36 20 22 22
22 45 1z"/>
<path d="M10523 1783 c-13 -2 -23 -8 -23 -13 0 -12 28 -6 42 8 7 7 10 11 8 11
-3 -1 -15 -4 -27 -6z"/>
<path d="M10470 1725 c0 -11 12 -14 50 -14 32 1 50 6 50 14 0 7 -19 12 -50 14
-39 1 -50 -2 -50 -14z"/>
<path d="M10450 1687 c0 -2 15 -16 33 -33 l32 -29 -29 33 c-28 30 -36 37 -36
29z"/>
<path d="M10575 1680 c-3 -6 1 -7 9 -4 18 7 21 14 7 14 -6 0 -13 -4 -16 -10z"/>
<path d="M10500 1505 c-9 -10 -9 -15 -1 -15 7 0 11 -25 11 -70 0 -57 -4 -74
-20 -90 -26 -26 -26 -66 1 -80 56 -30 105 33 58 74 -22 19 -24 28 -21 94 2 43
7 72 14 72 7 0 6 5 -2 15 -7 8 -16 15 -20 15 -4 0 -13 -7 -20 -15z m45 -195
c3 -5 1 -10 -4 -10 -6 0 -11 -9 -11 -20 0 -25 -15 -26 -24 -2 -3 9 -9 23 -12
30 -7 15 42 17 51 2z"/>
<path d="M10436 1432 c6 -4 11 -23 11 -42 0 -19 -5 -38 -11 -42 -6 -5 -1 -8
12 -8 20 0 22 5 22 50 0 45 -2 50 -22 50 -13 0 -18 -3 -12 -8z"/>
<path d="M10505 940 c-10 -11 -13 -20 -7 -20 8 0 12 -23 12 -65 0 -37 4 -65
10 -65 6 0 10 28 10 64 0 35 4 66 9 68 5 2 4 11 -3 20 -12 17 -14 17 -31 -2z"/>
<path d="M110 800 c0 -17 7 -20 50 -20 43 0 50 3 50 20 0 17 -7 20 -50 20 -43
0 -50 -3 -50 -20z"/>
<path d="M10486 757 c-28 -20 -18 -69 16 -81 51 -18 89 42 50 77 -22 20 -42
21 -66 4z m64 -17 c0 -5 -4 -10 -10 -10 -5 0 -10 -7 -10 -15 0 -8 -5 -15 -11
-15 -6 0 -9 7 -5 15 3 9 0 15 -9 15 -8 0 -15 5 -15 10 0 6 14 10 30 10 17 0
30 -4 30 -10z"/>
<path d="M8705 430 c-12 -20 7 -30 56 -30 42 0 49 3 49 20 0 17 -7 20 -49 20
-28 0 -53 -4 -56 -10z"/>
<path d="M12250 420 c0 -17 7 -20 50 -20 43 0 50 3 50 20 0 17 -7 20 -50 20
-43 0 -50 -3 -50 -20z"/>
<path d="M1750 120 c0 -17 7 -20 50 -20 43 0 50 3 50 20 0 17 -7 20 -50 20
-43 0 -50 -3 -50 -20z"/>
</g>
</svg>
